<svg version="1.1" viewBox="0.0 0.0 960.0 720.0" fill="none" stroke="none" stroke-linecap="square" stroke-miterlimit="10" xmlns:xlink="http://www.w3.org/1999/xlink" xmlns="http://www.w3.org/2000/svg"><clipPath id="p.0"><path d="m0 0l960.0 0l0 720.0l-960.0 0l0 -720.0z" clip-rule="nonzero"/></clipPath><g clip-path="url(#p.0)"><path fill="#000000" fill-opacity="0.0" d="m0 0l960.0 0l0 720.0l-960.0 0z" fill-rule="evenodd"/><defs><linearGradient id="p.1" gradientUnits="userSpaceOnUse" gradientTransform="matrix(22.441636085792936 0.0 0.0 22.441636085792936 0.0 0.0)" spreadMethod="pad" x1="9.437394808417249" y1="4.920549739583184" x2="9.432825321969093" y2="27.362185360164794"><stop offset="0.0" stop-color="#134f5c"/><stop offset="0.11" stop-color="#134f5c"/><stop offset="0.42" stop-color="#48857a"/><stop offset="0.66" stop-color="#9ec9bb"/><stop offset="0.99999994" stop-color="#c3e6d6"/><stop offset="1.0" stop-color="#9ec9bb"/></linearGradient></defs><path fill="url(#p.1)" d="m211.79057 362.2925l0 0c0 -139.04306 118.27147 -251.75974 264.1667 -251.75974l0 0c70.0614 0 137.25323 26.524605 186.79407 73.738716c49.540894 47.214096 77.37268 111.25017 77.37268 178.02101l0 0c0 139.04303 -118.271484 251.75974 -264.16675 251.75974l0 0c-145.89523 0 -264.1667 -112.716705 -264.1667 -251.75974z" fill-rule="evenodd"/><path stroke="#000000" stroke-width="1.0" stroke-linejoin="round" stroke-linecap="butt" d="m211.79057 362.2925l0 0c0 -139.04306 118.27147 -251.75974 264.1667 -251.75974l0 0c70.0614 0 137.25323 26.524605 186.79407 73.738716c49.540894 47.214096 77.37268 111.25017 77.37268 178.02101l0 0c0 139.04303 -118.271484 251.75974 -264.16675 251.75974l0 0c-145.89523 0 -264.1667 -112.716705 -264.1667 -251.75974z" fill-rule="evenodd"/><path fill="#000000" d="m328.84164 468.38794c1.2055664 0.5751648 6.109894 2.152893 7.430908 0.4664917c1.3209839 -1.6864014 0.39630127 -6.630005 0.4951172 -10.5849c0.09881592 -3.9548645 -0.6452637 -11.477112 0.0977478 -13.144379c0.743042 -1.6672974 3.022705 2.2297974 4.3603516 3.1407776c1.3376465 0.9109802 2.6087036 1.7824707 3.6655273 2.3250427c1.0567932 0.54260254 1.9485474 0.83325195 2.6752625 0.9305115c0.7267456 0.09729004 1.4870911 0.19580078 1.6850586 -0.34680176c0.19799805 -0.54260254 0.2295227 -1.6680908 -0.49719238 -2.9087524c-0.7267151 -1.2406921 -2.3441772 -2.9458008 -3.8631287 -4.5353394c-1.5189819 -1.589508 -3.8801575 -3.4700928 -5.2507324 -5.0018005c-1.370575 -1.5317383 -2.3122559 -2.734558 -2.9727478 -4.1885376c-0.66052246 -1.4539795 -0.8581543 -3.0813599 -0.9902344 -4.5353394c-0.1321106 -1.4539795 -0.3803711 -4.0916443 0.19763184 -4.188507c0.5779724 -0.09689331 2.2793274 2.657196 3.2702332 3.6072388c0.9909363 0.95007324 1.7176514 1.6860046 2.675293 2.093048c0.9576416 0.40704346 2.6246643 0.7758484 3.0705566 0.34924316c0.44586182 -0.4265747 0.19900513 -1.648529 -0.39526367 -2.9087524c-0.5942688 -1.2602234 -2.0803223 -2.9852905 -3.1704102 -4.6525574c-1.0900879 -1.6672668 -2.54422 -3.393158 -3.3701172 -5.351074c-0.8258667 -1.9578857 -1.2055359 -4.4579773 -1.5851746 -6.3963623c-0.3796692 -1.9383545 -0.9406738 -4.865448 -0.692749 -5.2338257c0.24789429 -0.3683777 1.1895752 2.0735168 2.1801453 3.0235596c0.9906006 0.95007324 2.5248108 2.3665771 3.7633057 2.6767578c1.2384644 0.31018066 3.1884155 -0.2340393 3.6676025 -0.81573486c0.4791565 -0.58166504 -0.23092651 -1.7051086 -0.79260254 -2.674286c-0.561676 -0.96920776 -1.76828 -1.9969788 -2.5775146 -3.140808c-0.8092346 -1.1437988 -1.5186462 -2.3262634 -2.277954 -3.722046c-0.75930786 -1.395752 -1.4191284 -3.5474243 -2.2779236 -4.6525574c-0.8588257 -1.105133 -1.8345032 -2.0751343 -2.875 -1.978241c-1.0405273 0.09686279 -2.344513 1.2992859 -3.368042 2.5595093c-1.0234985 1.2602234 -1.3036499 3.1212463 -2.7730713 5.0018005c-1.4693909 1.8805847 -4.887329 4.614319 -6.0433044 6.2815857c-1.1559448 1.6672668 -1.007904 3.0048218 -0.89245605 3.722046c0.115448 0.7172241 0.8092346 0.77542114 1.5852051 0.5812683c0.77597046 -0.19418335 1.8157654 -0.6024475 3.0705566 -1.7462463c1.2547607 -1.1437988 3.5663452 -4.9810486 4.4580994 -5.1166077c0.89175415 -0.13552856 1.007904 2.6360474 0.89245605 4.303314c-0.115448 1.6672974 -0.7430115 3.8779602 -1.5852051 5.7003174c-0.8421631 1.8223572 -2.1635132 3.527893 -3.467865 5.2338257c-1.3043823 1.7059326 -3.4997864 3.547821 -4.3582764 5.0018005c-0.8584595 1.4539795 -1.0730896 3.0243835 -0.79260254 3.722046c0.28051758 0.6976929 1.4850159 0.890625 2.475586 0.4640503c0.99057007 -0.4265747 2.4273682 -2.3840942 3.4678955 -3.0235596c1.0404968 -0.63946533 2.263031 -1.802002 2.775116 -0.81329346c0.5121155 0.988739 0.8258972 5.014038 0.29748535 6.7456055c-0.52838135 1.7315979 -2.1798096 2.3193665 -3.467865 3.643921c-1.2880859 1.3245239 -3.005371 2.9657288 -4.260498 4.303314c-1.255127 1.3375549 -2.6427002 2.4618225 -3.2702637 3.722046c-0.6275635 1.2602234 -1.0072021 3.2771301 -0.4951172 3.839264c0.5121155 0.5621338 2.2963257 -0.098083496 3.567749 -0.46646118c1.2714233 -0.3683777 3.086853 -1.0074463 4.060791 -1.7438049c0.9739075 -0.73635864 1.2707214 -2.3446045 1.7828064 -2.6743164c0.5121155 -0.3297119 1.1577148 -0.89346313 1.2897949 0.69607544c0.1321106 1.589508 -0.41430664 6.165558 -0.49719238 8.841064c-0.082855225 2.675537 -0.01663208 5.447937 0 7.212097c0.016662598 1.7641602 0.1161499 2.313263 0.099853516 3.3728027c-0.016296387 1.0595398 -1.4031677 2.4093018 -0.19763184 2.9844666z" fill-rule="evenodd"/><path stroke="#000000" stroke-width="1.0" stroke-linejoin="round" stroke-linecap="butt" d="m328.84164 468.38794c1.2055664 0.5751648 6.109894 2.152893 7.430908 0.4664917c1.3209839 -1.6864014 0.39630127 -6.630005 0.4951172 -10.5849c0.09881592 -3.9548645 -0.6452637 -11.477112 0.0977478 -13.144379c0.743042 -1.6672974 3.022705 2.2297974 4.3603516 3.1407776c1.3376465 0.9109802 2.6087036 1.7824707 3.6655273 2.3250427c1.0567932 0.54260254 1.9485474 0.83325195 2.6752625 0.9305115c0.7267456 0.09729004 1.4870911 0.19580078 1.6850586 -0.34680176c0.19799805 -0.54260254 0.2295227 -1.6680908 -0.49719238 -2.9087524c-0.7267151 -1.2406921 -2.3441772 -2.9458008 -3.8631287 -4.5353394c-1.5189819 -1.589508 -3.8801575 -3.4700928 -5.2507324 -5.0018005c-1.370575 -1.5317383 -2.3122559 -2.734558 -2.9727478 -4.1885376c-0.66052246 -1.4539795 -0.8581543 -3.0813599 -0.9902344 -4.5353394c-0.1321106 -1.4539795 -0.3803711 -4.0916443 0.19763184 -4.188507c0.5779724 -0.09689331 2.2793274 2.657196 3.2702332 3.6072388c0.9909363 0.95007324 1.7176514 1.6860046 2.675293 2.093048c0.9576416 0.40704346 2.6246643 0.7758484 3.0705566 0.34924316c0.44586182 -0.4265747 0.19900513 -1.648529 -0.39526367 -2.9087524c-0.5942688 -1.2602234 -2.0803223 -2.9852905 -3.1704102 -4.6525574c-1.0900879 -1.6672668 -2.54422 -3.393158 -3.3701172 -5.351074c-0.8258667 -1.9578857 -1.2055359 -4.4579773 -1.5851746 -6.3963623c-0.3796692 -1.9383545 -0.9406738 -4.865448 -0.692749 -5.2338257c0.24789429 -0.3683777 1.1895752 2.0735168 2.1801453 3.0235596c0.9906006 0.95007324 2.5248108 2.3665771 3.7633057 2.6767578c1.2384644 0.31018066 3.1884155 -0.2340393 3.6676025 -0.81573486c0.4791565 -0.58166504 -0.23092651 -1.7051086 -0.79260254 -2.674286c-0.561676 -0.96920776 -1.76828 -1.9969788 -2.5775146 -3.140808c-0.8092346 -1.1437988 -1.5186462 -2.3262634 -2.277954 -3.722046c-0.75930786 -1.395752 -1.4191284 -3.5474243 -2.2779236 -4.6525574c-0.8588257 -1.105133 -1.8345032 -2.0751343 -2.875 -1.978241c-1.0405273 0.09686279 -2.344513 1.2992859 -3.368042 2.5595093c-1.0234985 1.2602234 -1.3036499 3.1212463 -2.7730713 5.0018005c-1.4693909 1.8805847 -4.887329 4.614319 -6.0433044 6.2815857c-1.1559448 1.6672668 -1.007904 3.0048218 -0.89245605 3.722046c0.115448 0.7172241 0.8092346 0.77542114 1.5852051 0.5812683c0.77597046 -0.19418335 1.8157654 -0.6024475 3.0705566 -1.7462463c1.2547607 -1.1437988 3.5663452 -4.9810486 4.4580994 -5.1166077c0.89175415 -0.13552856 1.007904 2.6360474 0.89245605 4.303314c-0.115448 1.6672974 -0.7430115 3.8779602 -1.5852051 5.7003174c-0.8421631 1.8223572 -2.1635132 3.527893 -3.467865 5.2338257c-1.3043823 1.7059326 -3.4997864 3.547821 -4.3582764 5.0018005c-0.8584595 1.4539795 -1.0730896 3.0243835 -0.79260254 3.722046c0.28051758 0.6976929 1.4850159 0.890625 2.475586 0.4640503c0.99057007 -0.4265747 2.4273682 -2.3840942 3.4678955 -3.0235596c1.0404968 -0.63946533 2.263031 -1.802002 2.775116 -0.81329346c0.5121155 0.988739 0.8258972 5.014038 0.29748535 6.7456055c-0.52838135 1.7315979 -2.1798096 2.3193665 -3.467865 3.643921c-1.2880859 1.3245239 -3.005371 2.9657288 -4.260498 4.303314c-1.255127 1.3375549 -2.6427002 2.4618225 -3.2702637 3.722046c-0.6275635 1.2602234 -1.0072021 3.2771301 -0.4951172 3.839264c0.5121155 0.5621338 2.2963257 -0.098083496 3.567749 -0.46646118c1.2714233 -0.3683777 3.086853 -1.0074463 4.060791 -1.7438049c0.9739075 -0.73635864 1.2707214 -2.3446045 1.7828064 -2.6743164c0.5121155 -0.3297119 1.1577148 -0.89346313 1.2897949 0.69607544c0.1321106 1.589508 -0.41430664 6.165558 -0.49719238 8.841064c-0.082855225 2.675537 -0.01663208 5.447937 0 7.212097c0.016662598 1.7641602 0.1161499 2.313263 0.099853516 3.3728027c-0.016296387 1.0595398 -1.4031677 2.4093018 -0.19763184 2.9844666z" fill-rule="evenodd"/><path fill="#000000" d="m281.3106 468.38916c1.2055664 0.5751648 6.109894 2.152893 7.430908 0.4664917c1.3209839 -1.6864014 0.39630127 -6.630005 0.4951172 -10.5849c0.09881592 -3.9548645 -0.6452637 -11.477112 0.0977478 -13.144379c0.743042 -1.6672974 3.022705 2.2297974 4.3603516 3.1407776c1.3376465 0.9109802 2.6087036 1.7824707 3.6655273 2.3250427c1.0567932 0.54260254 1.9485474 0.83325195 2.6752625 0.9305115c0.7267456 0.09729004 1.4870911 0.19580078 1.6850586 -0.34680176c0.19799805 -0.542572 0.2295227 -1.6680908 -0.49719238 -2.9087524c-0.7267151 -1.2406921 -2.3441467 -2.9458008 -3.8631287 -4.5353394c-1.5189819 -1.589508 -3.8801575 -3.4700928 -5.2507324 -5.0018005c-1.370575 -1.5317383 -2.3122559 -2.734558 -2.9727478 -4.1885376c-0.66052246 -1.4539795 -0.8581543 -3.0813599 -0.9902344 -4.5353394c-0.1321106 -1.4539795 -0.3803711 -4.0916443 0.19763184 -4.188507c0.5779724 -0.09689331 2.2793274 2.657196 3.2702332 3.6072388c0.9909363 0.95007324 1.7176514 1.6860046 2.675293 2.093048c0.9576416 0.40704346 2.6246643 0.7758484 3.0705566 0.34924316c0.44586182 -0.4265747 0.19900513 -1.648529 -0.39526367 -2.9087524c-0.5942688 -1.2602234 -2.0803223 -2.9852905 -3.1704102 -4.6525574c-1.0900879 -1.6672668 -2.54422 -3.393158 -3.3701172 -5.351074c-0.8258667 -1.9578857 -1.2055359 -4.4579773 -1.5851746 -6.3963623c-0.3796692 -1.9383545 -0.9406738 -4.865448 -0.692749 -5.2338257c0.24789429 -0.3683777 1.1895752 2.0735168 2.1801453 3.0235596c0.9906006 0.95007324 2.5248108 2.3665771 3.7633057 2.6767578c1.2384644 0.31018066 3.1884155 -0.2340393 3.6676025 -0.81573486c0.4791565 -0.58166504 -0.23092651 -1.7051086 -0.79260254 -2.674286c-0.561676 -0.96917725 -1.76828 -1.9969788 -2.5775146 -3.140808c-0.8092346 -1.1437988 -1.5186462 -2.3262634 -2.277954 -3.722046c-0.75930786 -1.395752 -1.4191284 -3.5474243 -2.2779236 -4.6525574c-0.8588257 -1.105133 -1.8345032 -2.0751343 -2.875 -1.978241c-1.0405273 0.09686279 -2.344513 1.2992859 -3.368042 2.5595093c-1.0234985 1.2602234 -1.3036499 3.1212463 -2.7730713 5.0018005c-1.4693909 1.8805847 -4.887329 4.614319 -6.0433044 6.2815857c-1.1559448 1.6672668 -1.007904 3.0048218 -0.89245605 3.722046c0.115448 0.7172241 0.8092346 0.77542114 1.5852051 0.5812683c0.77597046 -0.19415283 1.8157654 -0.6024475 3.0705566 -1.7462463c1.2547607 -1.1437988 3.5663452 -4.9810486 4.4580994 -5.1166077c0.89175415 -0.13552856 1.007904 2.6360474 0.89245605 4.303314c-0.115448 1.6672974 -0.7430115 3.8779602 -1.5852051 5.7003174c-0.8421631 1.8223572 -2.1635132 3.527893 -3.467865 5.2338257c-1.3043823 1.7059326 -3.4997864 3.547821 -4.3582764 5.0018005c-0.8584595 1.4539795 -1.0730896 3.0243835 -0.79260254 3.722046c0.28051758 0.6976929 1.4850159 0.890625 2.475586 0.4640503c0.99057007 -0.4265747 2.4273682 -2.3840942 3.4678955 -3.0235596c1.0404968 -0.63946533 2.263031 -1.802002 2.775116 -0.81326294c0.5121155 0.9887085 0.8258972 5.0140076 0.29748535 6.745575c-0.52838135 1.7315979 -2.1798096 2.3193665 -3.467865 3.643921c-1.2880859 1.3245239 -3.005371 2.9657288 -4.260498 4.303314c-1.255127 1.3375549 -2.6427002 2.4618225 -3.2702637 3.722046c-0.6275635 1.2602234 -1.0072021 3.2771301 -0.4951172 3.839264c0.5121155 0.5621338 2.2963257 -0.098083496 3.567749 -0.46646118c1.2714233 -0.3683777 3.086853 -1.0074463 4.060791 -1.7438049c0.9739075 -0.73635864 1.2707214 -2.3446045 1.7828064 -2.6743164c0.5121155 -0.3296814 1.1577148 -0.89346313 1.2897949 0.69607544c0.1321106 1.589508 -0.41430664 6.165558 -0.49719238 8.841064c-0.082855225 2.675537 -0.01663208 5.447937 0 7.212097c0.016662598 1.7641602 0.1161499 2.313263 0.099853516 3.3728027c-0.016296387 1.0595398 -1.4031677 2.4093018 -0.19763184 2.9844666z" fill-rule="evenodd"/><path stroke="#000000" stroke-width="1.0" stroke-linejoin="round" stroke-linecap="butt" d="m281.3106 468.38916c1.2055664 0.5751648 6.109894 2.152893 7.430908 0.4664917c1.3209839 -1.6864014 0.39630127 -6.630005 0.4951172 -10.5849c0.09881592 -3.9548645 -0.6452637 -11.477112 0.0977478 -13.144379c0.743042 -1.6672974 3.022705 2.2297974 4.3603516 3.1407776c1.3376465 0.9109802 2.6087036 1.7824707 3.6655273 2.3250427c1.0567932 0.54260254 1.9485474 0.83325195 2.6752625 0.9305115c0.7267456 0.09729004 1.4870911 0.19580078 1.6850586 -0.34680176c0.19799805 -0.542572 0.2295227 -1.6680908 -0.49719238 -2.9087524c-0.7267151 -1.2406921 -2.3441467 -2.9458008 -3.8631287 -4.5353394c-1.5189819 -1.589508 -3.8801575 -3.4700928 -5.2507324 -5.0018005c-1.370575 -1.5317383 -2.3122559 -2.734558 -2.9727478 -4.1885376c-0.66052246 -1.4539795 -0.8581543 -3.0813599 -0.9902344 -4.5353394c-0.1321106 -1.4539795 -0.3803711 -4.0916443 0.19763184 -4.188507c0.5779724 -0.09689331 2.2793274 2.657196 3.2702332 3.6072388c0.9909363 0.95007324 1.7176514 1.6860046 2.675293 2.093048c0.9576416 0.40704346 2.6246643 0.7758484 3.0705566 0.34924316c0.44586182 -0.4265747 0.19900513 -1.648529 -0.39526367 -2.9087524c-0.5942688 -1.2602234 -2.0803223 -2.9852905 -3.1704102 -4.6525574c-1.0900879 -1.6672668 -2.54422 -3.393158 -3.3701172 -5.351074c-0.8258667 -1.9578857 -1.2055359 -4.4579773 -1.5851746 -6.3963623c-0.3796692 -1.9383545 -0.9406738 -4.865448 -0.692749 -5.2338257c0.24789429 -0.3683777 1.1895752 2.0735168 2.1801453 3.0235596c0.9906006 0.95007324 2.5248108 2.3665771 3.7633057 2.6767578c1.2384644 0.31018066 3.1884155 -0.2340393 3.6676025 -0.81573486c0.4791565 -0.58166504 -0.23092651 -1.7051086 -0.79260254 -2.674286c-0.561676 -0.96917725 -1.76828 -1.9969788 -2.5775146 -3.140808c-0.8092346 -1.1437988 -1.5186462 -2.3262634 -2.277954 -3.722046c-0.75930786 -1.395752 -1.4191284 -3.5474243 -2.2779236 -4.6525574c-0.8588257 -1.105133 -1.8345032 -2.0751343 -2.875 -1.978241c-1.0405273 0.09686279 -2.344513 1.2992859 -3.368042 2.5595093c-1.0234985 1.2602234 -1.3036499 3.1212463 -2.7730713 5.0018005c-1.4693909 1.8805847 -4.887329 4.614319 -6.0433044 6.2815857c-1.1559448 1.6672668 -1.007904 3.0048218 -0.89245605 3.722046c0.115448 0.7172241 0.8092346 0.77542114 1.5852051 0.5812683c0.77597046 -0.19415283 1.8157654 -0.6024475 3.0705566 -1.7462463c1.2547607 -1.1437988 3.5663452 -4.9810486 4.4580994 -5.1166077c0.89175415 -0.13552856 1.007904 2.6360474 0.89245605 4.303314c-0.115448 1.6672974 -0.7430115 3.8779602 -1.5852051 5.7003174c-0.8421631 1.8223572 -2.1635132 3.527893 -3.467865 5.2338257c-1.3043823 1.7059326 -3.4997864 3.547821 -4.3582764 5.0018005c-0.8584595 1.4539795 -1.0730896 3.0243835 -0.79260254 3.722046c0.28051758 0.6976929 1.4850159 0.890625 2.475586 0.4640503c0.99057007 -0.4265747 2.4273682 -2.3840942 3.4678955 -3.0235596c1.0404968 -0.63946533 2.263031 -1.802002 2.775116 -0.81326294c0.5121155 0.9887085 0.8258972 5.0140076 0.29748535 6.745575c-0.52838135 1.7315979 -2.1798096 2.3193665 -3.467865 3.643921c-1.2880859 1.3245239 -3.005371 2.9657288 -4.260498 4.303314c-1.255127 1.3375549 -2.6427002 2.4618225 -3.2702637 3.722046c-0.6275635 1.2602234 -1.0072021 3.2771301 -0.4951172 3.839264c0.5121155 0.5621338 2.2963257 -0.098083496 3.567749 -0.46646118c1.2714233 -0.3683777 3.086853 -1.0074463 4.060791 -1.7438049c0.9739075 -0.73635864 1.2707214 -2.3446045 1.7828064 -2.6743164c0.5121155 -0.3296814 1.1577148 -0.89346313 1.2897949 0.69607544c0.1321106 1.589508 -0.41430664 6.165558 -0.49719238 8.841064c-0.082855225 2.675537 -0.01663208 5.447937 0 7.212097c0.016662598 1.7641602 0.1161499 2.313263 0.099853516 3.3728027c-0.016296387 1.0595398 -1.4031677 2.4093018 -0.19763184 2.9844666z" fill-rule="evenodd"/><path fill="#000000" d="m378.84216 467.6685c1.506073 0.96673584 7.194397 3.4798584 8.749847 0.7546692c1.555481 -2.7251892 0.4666443 -10.714325 0.5830078 -17.105804c0.116363525 -6.391449 -0.7597656 -18.54837 0.11514282 -21.243042c0.87490845 -2.694641 3.559204 3.6028137 5.1342773 5.0751038c1.5751038 1.47229 3.0717773 2.881897 4.316162 3.758667c1.2443848 0.87680054 2.2944336 1.3448792 3.1501465 1.5020142c0.8557129 0.15713501 1.7510376 0.31750488 1.9841614 -0.55929565c0.23309326 -0.87677 0.27026367 -2.696289 -0.5854492 -4.7013855c-0.8557129 -2.005127 -2.760254 -4.760437 -4.5488586 -7.329315c-1.7886047 -2.5688782 -4.5688477 -5.608734 -6.1827087 -8.083984c-1.6138611 -2.4752502 -2.7227173 -4.418091 -3.5004578 -6.767578c-0.7777405 -2.3494873 -1.010437 -4.979431 -1.1659851 -7.329315c-0.1555481 -2.349884 -0.44787598 -6.613312 0.23269653 -6.7700195c0.6805725 -0.15673828 2.6839294 4.294342 3.8507385 5.8297424c1.1668091 1.5353699 2.022522 2.724762 3.1501465 3.3825684c1.1276245 0.6577759 3.0905457 1.2536926 3.61557 0.56414795c0.5250244 -0.68951416 0.23434448 -2.664917 -0.46542358 -4.7013855c-0.69976807 -2.0364685 -2.4495544 -4.82312 -3.7331543 -7.5173645c-1.2835693 -2.694275 -2.995819 -5.4837646 -3.9682922 -8.648163c-0.97247314 -3.1643982 -1.4195251 -7.2055664 -1.8665771 -10.338196c-0.447052 -3.13266 -1.107605 -7.862549 -0.81570435 -8.457672c0.29190063 -0.5950928 1.4007568 3.351654 2.5671387 4.887024c1.1664124 1.5354004 2.9729614 3.8242188 4.4312744 4.325287c1.458313 0.50109863 3.7543945 -0.37854004 4.3186035 -1.3188171c0.564209 -0.9402771 -0.27191162 -2.7565308 -0.9332886 -4.3228455c-0.66137695 -1.5663452 -2.0821228 -3.2266846 -3.0350037 -5.0751038c-0.9529114 -1.8483887 -1.788208 -3.759491 -2.6822815 -6.0153503c-0.894104 -2.2558594 -1.6710205 -5.733673 -2.6822815 -7.519806c-1.011261 -1.7861328 -2.1601257 -3.3536682 -3.385315 -3.1969604c-1.2251892 0.15670776 -2.7606812 2.1003723 -3.9658508 4.1372375c-1.2052002 2.0368652 -1.5350647 5.0449524 -3.2652893 8.083984c-1.7301941 3.039032 -5.7548523 7.455902 -7.1159973 10.1501465c-1.361145 2.694275 -1.1868286 4.8561096 -1.0508728 6.015381c0.13595581 1.1592712 0.95288086 1.2536926 1.8665771 0.9402771c0.9136963 -0.31344604 2.1380615 -0.9724426 3.61557 -2.8208618c1.4775085 -1.8483887 4.1993713 -8.050171 5.24942 -8.269592c1.0500488 -0.21939087 1.1868286 4.2589417 1.0508728 6.9532166c-0.13595581 2.6942444 -0.87490845 6.2669067 -1.8665771 9.212311c-0.9916687 2.945404 -2.5475464 5.7031555 -4.083435 8.460083c-1.5358887 2.756958 -4.121002 5.7320557 -5.131836 8.081543c-1.0108643 2.3494873 -1.2635803 4.887848 -0.9332886 6.0153503c0.33029175 1.127533 1.7485657 1.4389343 2.914978 0.7497864c1.1664124 -0.68911743 2.8582458 -3.851471 4.083435 -4.8845825c1.2251892 -1.033081 2.664734 -2.911621 3.2677307 -1.3139343c0.6029968 1.5976562 0.97247314 8.101868 0.35028076 10.899933c-0.6221924 2.7980347 -2.566742 3.7476807 -4.083435 5.8883667c-1.5166931 2.1406555 -3.5388184 4.7937927 -5.0167236 6.9556274c-1.4779053 2.1618347 -3.1117554 3.9789124 -3.850708 6.0153503c-0.73895264 2.0364685 -1.1860046 5.2948914 -0.5830078 6.20343c0.6029968 0.9085388 2.7039185 -0.15713501 4.2010193 -0.7522278c1.4971008 -0.5950928 3.6347656 -1.6282043 4.781555 -2.81839c1.1468201 -1.1902161 1.4962769 -3.790039 2.0992737 -4.322876c0.60302734 -0.5328064 1.3631897 -1.4429626 1.5187378 1.1259155c0.1555481 2.5688782 -0.487854 9.963715 -0.5854492 14.287384c-0.0975647 4.3236694 0.06695557 8.840698 0 11.654602c-0.06695557 2.8139343 -0.38253784 3.51651 -0.40170288 5.228943c-0.019195557 1.7124634 -1.2194824 4.0790405 0.28659058 5.0457764z" fill-rule="evenodd"/><path stroke="#000000" stroke-width="1.0" stroke-linejoin="round" stroke-linecap="butt" d="m378.84216 467.6685c1.506073 0.96673584 7.194397 3.4798584 8.749847 0.7546692c1.555481 -2.7251892 0.4666443 -10.714325 0.5830078 -17.105804c0.116363525 -6.391449 -0.7597656 -18.54837 0.11514282 -21.243042c0.87490845 -2.694641 3.559204 3.6028137 5.1342773 5.0751038c1.5751038 1.47229 3.0717773 2.881897 4.316162 3.758667c1.2443848 0.87680054 2.2944336 1.3448792 3.1501465 1.5020142c0.8557129 0.15713501 1.7510376 0.31750488 1.9841614 -0.55929565c0.23309326 -0.87677 0.27026367 -2.696289 -0.5854492 -4.7013855c-0.8557129 -2.005127 -2.760254 -4.760437 -4.5488586 -7.329315c-1.7886047 -2.5688782 -4.5688477 -5.608734 -6.1827087 -8.083984c-1.6138611 -2.4752502 -2.7227173 -4.418091 -3.5004578 -6.767578c-0.7777405 -2.3494873 -1.010437 -4.979431 -1.1659851 -7.329315c-0.1555481 -2.349884 -0.44787598 -6.613312 0.23269653 -6.7700195c0.6805725 -0.15673828 2.6839294 4.294342 3.8507385 5.8297424c1.1668091 1.5353699 2.022522 2.724762 3.1501465 3.3825684c1.1276245 0.6577759 3.0905457 1.2536926 3.61557 0.56414795c0.5250244 -0.68951416 0.23434448 -2.664917 -0.46542358 -4.7013855c-0.69976807 -2.0364685 -2.4495544 -4.82312 -3.7331543 -7.5173645c-1.2835693 -2.694275 -2.995819 -5.4837646 -3.9682922 -8.648163c-0.97247314 -3.1643982 -1.4195251 -7.2055664 -1.8665771 -10.338196c-0.447052 -3.13266 -1.107605 -7.862549 -0.81570435 -8.457672c0.29190063 -0.5950928 1.4007568 3.351654 2.5671387 4.887024c1.1664124 1.5354004 2.9729614 3.8242188 4.4312744 4.325287c1.458313 0.50109863 3.7543945 -0.37854004 4.3186035 -1.3188171c0.564209 -0.9402771 -0.27191162 -2.7565308 -0.9332886 -4.3228455c-0.66137695 -1.5663452 -2.0821228 -3.2266846 -3.0350037 -5.0751038c-0.9529114 -1.8483887 -1.788208 -3.759491 -2.6822815 -6.0153503c-0.894104 -2.2558594 -1.6710205 -5.733673 -2.6822815 -7.519806c-1.011261 -1.7861328 -2.1601257 -3.3536682 -3.385315 -3.1969604c-1.2251892 0.15670776 -2.7606812 2.1003723 -3.9658508 4.1372375c-1.2052002 2.0368652 -1.5350647 5.0449524 -3.2652893 8.083984c-1.7301941 3.039032 -5.7548523 7.455902 -7.1159973 10.1501465c-1.361145 2.694275 -1.1868286 4.8561096 -1.0508728 6.015381c0.13595581 1.1592712 0.95288086 1.2536926 1.8665771 0.9402771c0.9136963 -0.31344604 2.1380615 -0.9724426 3.61557 -2.8208618c1.4775085 -1.8483887 4.1993713 -8.050171 5.24942 -8.269592c1.0500488 -0.21939087 1.1868286 4.2589417 1.0508728 6.9532166c-0.13595581 2.6942444 -0.87490845 6.2669067 -1.8665771 9.212311c-0.9916687 2.945404 -2.5475464 5.7031555 -4.083435 8.460083c-1.5358887 2.756958 -4.121002 5.7320557 -5.131836 8.081543c-1.0108643 2.3494873 -1.2635803 4.887848 -0.9332886 6.0153503c0.33029175 1.127533 1.7485657 1.4389343 2.914978 0.7497864c1.1664124 -0.68911743 2.8582458 -3.851471 4.083435 -4.8845825c1.2251892 -1.033081 2.664734 -2.911621 3.2677307 -1.3139343c0.6029968 1.5976562 0.97247314 8.101868 0.35028076 10.899933c-0.6221924 2.7980347 -2.566742 3.7476807 -4.083435 5.8883667c-1.5166931 2.1406555 -3.5388184 4.7937927 -5.0167236 6.9556274c-1.4779053 2.1618347 -3.1117554 3.9789124 -3.850708 6.0153503c-0.73895264 2.0364685 -1.1860046 5.2948914 -0.5830078 6.20343c0.6029968 0.9085388 2.7039185 -0.15713501 4.2010193 -0.7522278c1.4971008 -0.5950928 3.6347656 -1.6282043 4.781555 -2.81839c1.1468201 -1.1902161 1.4962769 -3.790039 2.0992737 -4.322876c0.60302734 -0.5328064 1.3631897 -1.4429626 1.5187378 1.1259155c0.1555481 2.5688782 -0.487854 9.963715 -0.5854492 14.287384c-0.0975647 4.3236694 0.06695557 8.840698 0 11.654602c-0.06695557 2.8139343 -0.38253784 3.51651 -0.40170288 5.228943c-0.019195557 1.7124634 -1.2194824 4.0790405 0.28659058 5.0457764z" fill-rule="evenodd"/><path fill="#000000" d="m666.54626 467.65234c1.2055054 0.9295349 6.1098633 3.4792786 7.430847 0.75387573c1.3209839 -2.7254028 0.39630127 -10.714752 0.4951172 -17.106232c0.09881592 -6.3914795 -0.6452637 -18.548187 0.09777832 -21.242676c0.743042 -2.694458 3.022705 3.6036072 4.3603516 5.075836c1.3376465 1.472229 2.6087036 2.8806458 3.6655273 3.7575378c1.0567627 0.8768921 1.9485474 1.3465576 2.675293 1.5037842c0.7266846 0.15722656 1.4870605 0.31643677 1.6849976 -0.5604553c0.19799805 -0.8768921 0.22955322 -2.6958008 -0.49719238 -4.7008667c-0.7266846 -2.005066 -2.3441162 -4.7607117 -3.8630981 -7.3295593c-1.5189819 -2.5688171 -3.880127 -5.6080017 -5.2507324 -8.083405c-1.3706055 -2.4754333 -2.3122559 -4.4193115 -2.9727783 -6.769104c-0.66052246 -2.349762 -0.8581543 -4.979767 -0.9902344 -7.329529c-0.13208008 -2.3497925 -0.3803711 -6.6125183 0.19763184 -6.7690735c0.5780029 -0.1565857 2.279358 4.2943115 3.2702637 5.8296814c0.99090576 1.5353699 1.7176514 2.7247314 2.675293 3.3825684c0.9576416 0.6578369 2.6246338 1.2538147 3.0705566 0.5644226c0.44586182 -0.6894226 0.19897461 -2.664215 -0.39526367 -4.7008667c-0.5942993 -2.0366516 -2.0803223 -4.824524 -3.1704102 -7.5190125c-1.0900879 -2.694458 -2.5442505 -5.483673 -3.3701172 -8.647827c-0.8258667 -3.1641846 -1.2055664 -7.2045593 -1.5852051 -10.337158c-0.37963867 -3.1325989 -0.9406128 -7.863037 -0.692749 -8.458374c0.2479248 -0.5953369 1.1895752 3.3509827 2.1801758 4.8863525c0.9906006 1.5353699 2.5248413 3.8246155 3.7633057 4.325897c1.2384644 0.5012512 3.1884155 -0.37826538 3.6676025 -1.3182983c0.47912598 -0.94003296 -0.23095703 -2.7556458 -0.79260254 -4.32193c-0.56170654 -1.5663147 -1.7683105 -3.2273254 -2.5775146 -5.075836c-0.80926514 -1.8485107 -1.5186157 -3.759491 -2.277954 -6.0151978c-0.7593384 -2.2557068 -1.4191284 -5.7330017 -2.277954 -7.5190125c-0.8588257 -1.7860107 -1.8344727 -3.3536072 -2.875 -3.197052c-1.0404663 0.15655518 -2.3444824 2.0997925 -3.368042 4.136444c-1.0234985 2.036621 -1.3036499 5.0442505 -2.7730103 8.083405c-1.4694214 3.0391846 -4.88739 7.457184 -6.043335 10.151642c-1.1559448 2.6944885 -1.0079346 4.8561096 -0.89245605 6.0152283c0.115478516 1.1590881 0.80926514 1.2531433 1.5852051 0.9393616c0.77593994 -0.31378174 1.8157349 -0.9735718 3.0705566 -2.8220825c1.2547607 -1.8485107 3.5663452 -8.049866 4.458069 -8.268921c0.89178467 -0.2190857 1.0079346 4.2601013 0.89245605 6.9545593c-0.11541748 2.6944885 -0.74298096 6.2671814 -1.5852051 9.21228c-0.8421631 2.9450989 -2.1635132 5.701416 -3.4678345 8.458374c-1.3043823 2.7569885 -3.499817 5.733673 -4.3582764 8.083435c-0.8584595 2.349762 -1.0731201 4.887665 -0.79260254 6.0151978c0.28051758 1.127533 1.4849854 1.439331 2.475586 0.74993896c0.99053955 -0.6894226 2.4273682 -3.8529358 3.4678955 -4.886383c1.0404663 -1.0334473 2.2630005 -2.912201 2.7750854 -1.314331c0.512146 1.5978699 0.82592773 8.103149 0.29748535 10.90155c-0.52838135 2.7984314 -2.1798096 3.7483215 -3.4678345 5.888916c-1.2880859 2.1405945 -3.005371 4.7929688 -4.260498 6.95459c-1.255127 2.161621 -2.6427002 3.9785461 -3.2702637 6.0151978c-0.6275635 2.0366516 -1.0072021 5.2962036 -0.4951172 6.204651c0.51208496 0.9084778 2.2963257 -0.15853882 3.567749 -0.75387573c1.2714233 -0.5953369 3.086853 -1.6281128 4.060791 -2.8181458c0.973938 -1.1900024 1.2706909 -3.789093 1.7828369 -4.32193c0.51208496 -0.5328369 1.1576538 -1.4439392 1.2897949 1.1248779c0.13208008 2.5688477 -0.41436768 9.964172 -0.49725342 14.288086c-0.08282471 4.3239136 -0.016601562 8.804413 0 11.655457c0.016662598 2.8510437 0.1161499 3.7384338 0.09991455 5.450775c-0.016296387 1.7123413 -1.4031982 3.8937073 -0.19763184 4.8232117z" fill-rule="evenodd"/><path stroke="#000000" stroke-width="1.0" stroke-linejoin="round" stroke-linecap="butt" d="m666.54626 467.65234c1.2055054 0.9295349 6.1098633 3.4792786 7.430847 0.75387573c1.3209839 -2.7254028 0.39630127 -10.714752 0.4951172 -17.106232c0.09881592 -6.3914795 -0.6452637 -18.548187 0.09777832 -21.242676c0.743042 -2.694458 3.022705 3.6036072 4.3603516 5.075836c1.3376465 1.472229 2.6087036 2.8806458 3.6655273 3.7575378c1.0567627 0.8768921 1.9485474 1.3465576 2.675293 1.5037842c0.7266846 0.15722656 1.4870605 0.31643677 1.6849976 -0.5604553c0.19799805 -0.8768921 0.22955322 -2.6958008 -0.49719238 -4.7008667c-0.7266846 -2.005066 -2.3441162 -4.7607117 -3.8630981 -7.3295593c-1.5189819 -2.5688171 -3.880127 -5.6080017 -5.2507324 -8.083405c-1.3706055 -2.4754333 -2.3122559 -4.4193115 -2.9727783 -6.769104c-0.66052246 -2.349762 -0.8581543 -4.979767 -0.9902344 -7.329529c-0.13208008 -2.3497925 -0.3803711 -6.6125183 0.19763184 -6.7690735c0.5780029 -0.1565857 2.279358 4.2943115 3.2702637 5.8296814c0.99090576 1.5353699 1.7176514 2.7247314 2.675293 3.3825684c0.9576416 0.6578369 2.6246338 1.2538147 3.0705566 0.5644226c0.44586182 -0.6894226 0.19897461 -2.664215 -0.39526367 -4.7008667c-0.5942993 -2.0366516 -2.0803223 -4.824524 -3.1704102 -7.5190125c-1.0900879 -2.694458 -2.5442505 -5.483673 -3.3701172 -8.647827c-0.8258667 -3.1641846 -1.2055664 -7.2045593 -1.5852051 -10.337158c-0.37963867 -3.1325989 -0.9406128 -7.863037 -0.692749 -8.458374c0.2479248 -0.5953369 1.1895752 3.3509827 2.1801758 4.8863525c0.9906006 1.5353699 2.5248413 3.8246155 3.7633057 4.325897c1.2384644 0.5012512 3.1884155 -0.37826538 3.6676025 -1.3182983c0.47912598 -0.94003296 -0.23095703 -2.7556458 -0.79260254 -4.32193c-0.56170654 -1.5663147 -1.7683105 -3.2273254 -2.5775146 -5.075836c-0.80926514 -1.8485107 -1.5186157 -3.759491 -2.277954 -6.0151978c-0.7593384 -2.2557068 -1.4191284 -5.7330017 -2.277954 -7.5190125c-0.8588257 -1.7860107 -1.8344727 -3.3536072 -2.875 -3.197052c-1.0404663 0.15655518 -2.3444824 2.0997925 -3.368042 4.136444c-1.0234985 2.036621 -1.3036499 5.0442505 -2.7730103 8.083405c-1.4694214 3.0391846 -4.88739 7.457184 -6.043335 10.151642c-1.1559448 2.6944885 -1.0079346 4.8561096 -0.89245605 6.0152283c0.115478516 1.1590881 0.80926514 1.2531433 1.5852051 0.9393616c0.77593994 -0.31378174 1.8157349 -0.9735718 3.0705566 -2.8220825c1.2547607 -1.8485107 3.5663452 -8.049866 4.458069 -8.268921c0.89178467 -0.2190857 1.0079346 4.2601013 0.89245605 6.9545593c-0.11541748 2.6944885 -0.74298096 6.2671814 -1.5852051 9.21228c-0.8421631 2.9450989 -2.1635132 5.701416 -3.4678345 8.458374c-1.3043823 2.7569885 -3.499817 5.733673 -4.3582764 8.083435c-0.8584595 2.349762 -1.0731201 4.887665 -0.79260254 6.0151978c0.28051758 1.127533 1.4849854 1.439331 2.475586 0.74993896c0.99053955 -0.6894226 2.4273682 -3.8529358 3.4678955 -4.886383c1.0404663 -1.0334473 2.2630005 -2.912201 2.7750854 -1.314331c0.512146 1.5978699 0.82592773 8.103149 0.29748535 10.90155c-0.52838135 2.7984314 -2.1798096 3.7483215 -3.4678345 5.888916c-1.2880859 2.1405945 -3.005371 4.7929688 -4.260498 6.95459c-1.255127 2.161621 -2.6427002 3.9785461 -3.2702637 6.0151978c-0.6275635 2.0366516 -1.0072021 5.2962036 -0.4951172 6.204651c0.51208496 0.9084778 2.2963257 -0.15853882 3.567749 -0.75387573c1.2714233 -0.5953369 3.086853 -1.6281128 4.060791 -2.8181458c0.973938 -1.1900024 1.2706909 -3.789093 1.7828369 -4.32193c0.51208496 -0.5328369 1.1576538 -1.4439392 1.2897949 1.1248779c0.13208008 2.5688477 -0.41436768 9.964172 -0.49725342 14.288086c-0.08282471 4.3239136 -0.016601562 8.804413 0 11.655457c0.016662598 2.8510437 0.1161499 3.7384338 0.09991455 5.450775c-0.016296387 1.7123413 -1.4031982 3.8937073 -0.19763184 4.8232117z" fill-rule="evenodd"/><path fill="#000000" d="m605.51105 461.0513c1.2055664 0.5751648 6.1099243 2.152893 7.430908 0.4664917c1.3209839 -1.6864014 0.39630127 -6.630005 0.4951172 -10.5849c0.09881592 -3.9548645 -0.6452637 -11.477112 0.09777832 -13.144379c0.74298096 -1.6672974 3.022705 2.2297974 4.3603516 3.1407776c1.3376465 0.9109802 2.6087036 1.7824707 3.6654663 2.3250427c1.0568237 0.54260254 1.9486084 0.83325195 2.675293 0.9305115c0.7267456 0.09729004 1.4871216 0.19580078 1.6850586 -0.34680176c0.19799805 -0.542572 0.22955322 -1.6680603 -0.49719238 -2.9087524c-0.7266846 -1.2406921 -2.3441772 -2.9458008 -3.8631592 -4.5353394c-1.5189209 -1.589508 -3.880127 -3.4700928 -5.2506714 -5.0018005c-1.3706055 -1.5317383 -2.312317 -2.734558 -2.9727783 -4.1885376c-0.66052246 -1.4539795 -0.8581543 -3.0813599 -0.9902344 -4.5353394c-0.13208008 -1.4539795 -0.3803711 -4.0916443 0.19763184 -4.188507c0.5780029 -0.09689331 2.2792969 2.657196 3.2702637 3.6072388c0.99090576 0.95007324 1.7176514 1.6860046 2.675293 2.093048c0.9576416 0.40704346 2.6246338 0.7758484 3.0704956 0.34924316c0.44592285 -0.4265747 0.19903564 -1.648529 -0.39526367 -2.9087524c-0.5942383 -1.2602234 -2.0802612 -2.9852905 -3.1703491 -4.6525574c-1.0900879 -1.6672668 -2.5442505 -3.393158 -3.3701172 -5.351074c-0.82592773 -1.9578857 -1.2055664 -4.4579773 -1.5852051 -6.396332c-0.37963867 -1.938385 -0.9406738 -4.865448 -0.692749 -5.233856c0.2479248 -0.3683777 1.1895752 2.0735168 2.1801758 3.0235596c0.99053955 0.95007324 2.5247803 2.3665771 3.7633057 2.6767578c1.2384644 0.31018066 3.1884155 -0.2340393 3.6675415 -0.81573486c0.479187 -0.58166504 -0.230896 -1.7051086 -0.79260254 -2.674286c-0.5616455 -0.96917725 -1.7682495 -1.9969788 -2.5774536 -3.140808c-0.80926514 -1.1437988 -1.5186768 -2.3262634 -2.277954 -3.722046c-0.7593384 -1.395752 -1.4191284 -3.5474243 -2.277954 -4.6525574c-0.8588257 -1.105133 -1.8344727 -2.0751343 -2.875 -1.978241c-1.0405273 0.09686279 -2.3445435 1.2992859 -3.368042 2.5595093c-1.0234985 1.2602234 -1.3036499 3.1212463 -2.7730713 5.0018005c-1.4693604 1.8805847 -4.887329 4.614319 -6.043274 6.2815857c-1.1560059 1.6672668 -1.0079346 3.0048218 -0.89245605 3.722046c0.11541748 0.7172241 0.8092041 0.77542114 1.5852051 0.5812683c0.77593994 -0.19415283 1.8157349 -0.6024475 3.0704956 -1.7462463c1.2548218 -1.1437988 3.5664062 -4.9810486 4.45813 -5.1166077c0.89178467 -0.13552856 1.0079346 2.6360474 0.89245605 4.303314c-0.115478516 1.6672974 -0.743042 3.8779602 -1.5852051 5.7003174c-0.8421631 1.8223572 -2.1635132 3.527893 -3.4678955 5.2338257c-1.3043213 1.7059326 -3.4997559 3.547821 -4.3582153 5.0018005c-0.8585205 1.4539795 -1.0731201 3.0243835 -0.79260254 3.7220764c0.28045654 0.69766235 1.4849854 0.8905945 2.475586 0.46401978c0.99053955 -0.4265747 2.4273682 -2.3840942 3.4678345 -3.0235596c1.0405273 -0.63946533 2.2630615 -1.802002 2.7751465 -0.81326294c0.512146 0.9887085 0.82592773 5.0140076 0.29748535 6.745575c-0.52838135 1.7315979 -2.1798096 2.3193665 -3.4678955 3.643921c-1.2880249 1.3245239 -3.00531 2.9657593 -4.260437 4.303314c-1.255127 1.3375549 -2.6427002 2.4618225 -3.2702637 3.722046c-0.6275635 1.2602234 -1.0072632 3.2771301 -0.4951172 3.839264c0.51208496 0.5621338 2.2963257 -0.098083496 3.567749 -0.46646118c1.2714233 -0.3683777 3.086792 -1.0074463 4.06073 -1.7438049c0.973938 -0.73635864 1.270752 -2.3446045 1.7828369 -2.6743164c0.512146 -0.3296814 1.1577148 -0.89346313 1.2897949 0.69607544c0.13214111 1.589508 -0.41430664 6.165558 -0.49719238 8.841064c-0.08282471 2.675537 -0.016601562 5.447937 0 7.212097c0.016662598 1.7641602 0.1161499 2.313263 0.099853516 3.3728027c-0.016296387 1.0595398 -1.4031372 2.4093323 -0.19763184 2.9844666z" fill-rule="evenodd"/><path stroke="#000000" stroke-width="1.0" stroke-linejoin="round" stroke-linecap="butt" d="m605.51105 461.0513c1.2055664 0.5751648 6.1099243 2.152893 7.430908 0.4664917c1.3209839 -1.6864014 0.39630127 -6.630005 0.4951172 -10.5849c0.09881592 -3.9548645 -0.6452637 -11.477112 0.09777832 -13.144379c0.74298096 -1.6672974 3.022705 2.2297974 4.3603516 3.1407776c1.3376465 0.9109802 2.6087036 1.7824707 3.6654663 2.3250427c1.0568237 0.54260254 1.9486084 0.83325195 2.675293 0.9305115c0.7267456 0.09729004 1.4871216 0.19580078 1.6850586 -0.34680176c0.19799805 -0.542572 0.22955322 -1.6680603 -0.49719238 -2.9087524c-0.7266846 -1.2406921 -2.3441772 -2.9458008 -3.8631592 -4.5353394c-1.5189209 -1.589508 -3.880127 -3.4700928 -5.2506714 -5.0018005c-1.3706055 -1.5317383 -2.312317 -2.734558 -2.9727783 -4.1885376c-0.66052246 -1.4539795 -0.8581543 -3.0813599 -0.9902344 -4.5353394c-0.13208008 -1.4539795 -0.3803711 -4.0916443 0.19763184 -4.188507c0.5780029 -0.09689331 2.2792969 2.657196 3.2702637 3.6072388c0.99090576 0.95007324 1.7176514 1.6860046 2.675293 2.093048c0.9576416 0.40704346 2.6246338 0.7758484 3.0704956 0.34924316c0.44592285 -0.4265747 0.19903564 -1.648529 -0.39526367 -2.9087524c-0.5942383 -1.2602234 -2.0802612 -2.9852905 -3.1703491 -4.6525574c-1.0900879 -1.6672668 -2.5442505 -3.393158 -3.3701172 -5.351074c-0.82592773 -1.9578857 -1.2055664 -4.4579773 -1.5852051 -6.396332c-0.37963867 -1.938385 -0.9406738 -4.865448 -0.692749 -5.233856c0.2479248 -0.3683777 1.1895752 2.0735168 2.1801758 3.0235596c0.99053955 0.95007324 2.5247803 2.3665771 3.7633057 2.6767578c1.2384644 0.31018066 3.1884155 -0.2340393 3.6675415 -0.81573486c0.479187 -0.58166504 -0.230896 -1.7051086 -0.79260254 -2.674286c-0.5616455 -0.96917725 -1.7682495 -1.9969788 -2.5774536 -3.140808c-0.80926514 -1.1437988 -1.5186768 -2.3262634 -2.277954 -3.722046c-0.7593384 -1.395752 -1.4191284 -3.5474243 -2.277954 -4.6525574c-0.8588257 -1.105133 -1.8344727 -2.0751343 -2.875 -1.978241c-1.0405273 0.09686279 -2.3445435 1.2992859 -3.368042 2.5595093c-1.0234985 1.2602234 -1.3036499 3.1212463 -2.7730713 5.0018005c-1.4693604 1.8805847 -4.887329 4.614319 -6.043274 6.2815857c-1.1560059 1.6672668 -1.0079346 3.0048218 -0.89245605 3.722046c0.11541748 0.7172241 0.8092041 0.77542114 1.5852051 0.5812683c0.77593994 -0.19415283 1.8157349 -0.6024475 3.0704956 -1.7462463c1.2548218 -1.1437988 3.5664062 -4.9810486 4.45813 -5.1166077c0.89178467 -0.13552856 1.0079346 2.6360474 0.89245605 4.303314c-0.115478516 1.6672974 -0.743042 3.8779602 -1.5852051 5.7003174c-0.8421631 1.8223572 -2.1635132 3.527893 -3.4678955 5.2338257c-1.3043213 1.7059326 -3.4997559 3.547821 -4.3582153 5.0018005c-0.8585205 1.4539795 -1.0731201 3.0243835 -0.79260254 3.7220764c0.28045654 0.69766235 1.4849854 0.8905945 2.475586 0.46401978c0.99053955 -0.4265747 2.4273682 -2.3840942 3.4678345 -3.0235596c1.0405273 -0.63946533 2.2630615 -1.802002 2.7751465 -0.81326294c0.512146 0.9887085 0.82592773 5.0140076 0.29748535 6.745575c-0.52838135 1.7315979 -2.1798096 2.3193665 -3.4678955 3.643921c-1.2880249 1.3245239 -3.00531 2.9657593 -4.260437 4.303314c-1.255127 1.3375549 -2.6427002 2.4618225 -3.2702637 3.722046c-0.6275635 1.2602234 -1.0072632 3.2771301 -0.4951172 3.839264c0.51208496 0.5621338 2.2963257 -0.098083496 3.567749 -0.46646118c1.2714233 -0.3683777 3.086792 -1.0074463 4.06073 -1.7438049c0.973938 -0.73635864 1.270752 -2.3446045 1.7828369 -2.6743164c0.512146 -0.3296814 1.1577148 -0.89346313 1.2897949 0.69607544c0.13214111 1.589508 -0.41430664 6.165558 -0.49719238 8.841064c-0.08282471 2.675537 -0.016601562 5.447937 0 7.212097c0.016662598 1.7641602 0.1161499 2.313263 0.099853516 3.3728027c-0.016296387 1.0595398 -1.4031372 2.4093323 -0.19763184 2.9844666z" fill-rule="evenodd"/><path fill="#000000" d="m555.3898 460.81668c1.2055664 0.6324463 6.1099243 2.3673096 7.430908 0.51293945c1.3209839 -1.8543701 0.39630127 -7.290344 0.4951172 -11.63913c0.09881592 -4.3487854 -0.6452637 -12.62027 0.09777832 -14.453613c0.74298096 -1.833313 3.022705 2.4519043 4.3603516 3.4536133c1.3376465 1.001709 2.6087036 1.9599915 3.6654663 2.5566406c1.0568237 0.59664917 1.9486084 0.91622925 2.675293 1.0231934c0.7267456 0.10696411 1.4871216 0.21530151 1.6850586 -0.38134766c0.19799805 -0.59664917 0.22955322 -1.8342285 -0.49719238 -3.1984863c-0.7266846 -1.3642578 -2.3441772 -3.2391968 -3.8631592 -4.98703c-1.5189819 -1.7478638 -3.880127 -3.8157349 -5.2506714 -5.5c-1.3706055 -1.6842957 -2.312317 -3.0069275 -2.9727783 -4.605713c-0.66052246 -1.5987854 -0.8581543 -3.3882446 -0.9902344 -4.98703c-0.13208008 -1.5988159 -0.3803711 -4.4992065 0.19763184 -4.605713c0.5780029 -0.106536865 2.2792969 2.921875 3.2702637 3.9665527c0.99090576 1.0446472 1.7176514 1.8539124 2.675293 2.3014832c0.9576416 0.44760132 2.6246338 0.8531189 3.0704956 0.3840332c0.44592285 -0.46905518 0.19903564 -1.8127441 -0.39526367 -3.1984558c-0.5942383 -1.3857422 -2.0802612 -3.2826538 -3.1703491 -5.115967c-1.0900879 -1.8333435 -2.5442505 -3.7311096 -3.3701172 -5.884033c-0.82592773 -2.152893 -1.2055664 -4.902008 -1.5852051 -7.0334167c-0.37963867 -2.1314392 -0.9406738 -5.350067 -0.692749 -5.755127c0.2479248 -0.4050598 1.1895752 2.2800293 2.1801758 3.324707c0.99053955 1.0446777 2.5247803 2.602295 3.7633057 2.9433594c1.2384644 0.34106445 3.1884155 -0.25738525 3.6675415 -0.89697266c0.479187 -0.6396179 -0.230896 -1.8749695 -0.79260254 -2.9406738c-0.5616455 -1.0657043 -1.7682495 -2.1958923 -2.5774536 -3.4536133c-0.80926514 -1.257721 -1.5186768 -2.5579834 -2.277954 -4.0927734c-0.7593384 -1.53479 -1.4191284 -3.9007263 -2.277954 -5.1159363c-0.8588257 -1.21521 -1.8344727 -2.2818298 -2.875 -2.175293c-1.0405273 0.10650635 -2.3445435 1.4287109 -3.368042 2.8144531c-1.0234985 1.3857422 -1.3036499 3.4320984 -2.7730713 5.4999695c-1.4693604 2.067871 -4.887329 5.073883 -6.043274 6.9072266c-1.1560059 1.833313 -1.0079346 3.3041077 -0.89245605 4.0927734c0.11541748 0.78863525 0.8092041 0.85266113 1.5852051 0.63916016c0.77593994 -0.21350098 1.8157349 -0.66244507 3.0704956 -1.920166c1.2548218 -1.2577515 3.5664062 -5.477173 4.45813 -5.6262207c0.89178467 -0.14904785 1.0079346 2.89859 0.89245605 4.7319336c-0.115478516 1.833313 -0.743042 4.2641907 -1.5852051 6.268036c-0.8421631 2.0038757 -2.1635132 3.8792725 -3.4678955 5.755127c-1.3043213 1.8758545 -3.4997559 3.901184 -4.3582153 5.5c-0.8585205 1.5987854 -1.0731201 3.325592 -0.79260254 4.092743c0.28045654 0.7671814 1.4849854 0.9793396 2.475525 0.5102539c0.9906006 -0.46905518 2.4274292 -2.621521 3.4678955 -3.3246765c1.0405273 -0.70318604 2.2630615 -1.9815063 2.7751465 -0.8942871c0.512146 1.0871887 0.82592773 5.513397 0.29748535 7.41745c-0.52838135 1.9040527 -2.1798096 2.5503845 -3.4678955 4.006836c-1.2880249 1.4564514 -3.00531 3.261139 -4.260437 4.7319336c-1.255127 1.4707642 -2.6427002 2.7070007 -3.2702637 4.092743c-0.6275635 1.3857422 -1.0072632 3.6035767 -0.4951172 4.2216797c0.51208496 0.61813354 2.2963257 -0.10787964 3.567749 -0.51293945c1.2714233 -0.4050598 3.086792 -1.1077881 4.06073 -1.9174805c0.973938 -0.8096924 1.270752 -2.578125 1.7828369 -2.9406738c0.512146 -0.36254883 1.1577148 -0.9824524 1.2897949 0.76538086c0.13214111 1.7478638 -0.41430664 6.779663 -0.49719238 9.72168c-0.08282471 2.9420166 -0.016601562 5.9905396 0 7.9303894c0.016662598 1.9398804 0.1161499 2.5436707 0.099853516 3.7087402c-0.016296387 1.1650696 -1.4031372 2.649292 -0.19763184 3.2817383z" fill-rule="evenodd"/><path stroke="#000000" stroke-width="1.0" stroke-linejoin="round" stroke-linecap="butt" d="m555.3898 460.81668c1.2055664 0.6324463 6.1099243 2.3673096 7.430908 0.51293945c1.3209839 -1.8543701 0.39630127 -7.290344 0.4951172 -11.63913c0.09881592 -4.3487854 -0.6452637 -12.62027 0.09777832 -14.453613c0.74298096 -1.833313 3.022705 2.4519043 4.3603516 3.4536133c1.3376465 1.001709 2.6087036 1.9599915 3.6654663 2.5566406c1.0568237 0.59664917 1.9486084 0.91622925 2.675293 1.0231934c0.7267456 0.10696411 1.4871216 0.21530151 1.6850586 -0.38134766c0.19799805 -0.59664917 0.22955322 -1.8342285 -0.49719238 -3.1984863c-0.7266846 -1.3642578 -2.3441772 -3.2391968 -3.8631592 -4.98703c-1.5189819 -1.7478638 -3.880127 -3.8157349 -5.2506714 -5.5c-1.3706055 -1.6842957 -2.312317 -3.0069275 -2.9727783 -4.605713c-0.66052246 -1.5987854 -0.8581543 -3.3882446 -0.9902344 -4.98703c-0.13208008 -1.5988159 -0.3803711 -4.4992065 0.19763184 -4.605713c0.5780029 -0.106536865 2.2792969 2.921875 3.2702637 3.9665527c0.99090576 1.0446472 1.7176514 1.8539124 2.675293 2.3014832c0.9576416 0.44760132 2.6246338 0.8531189 3.0704956 0.3840332c0.44592285 -0.46905518 0.19903564 -1.8127441 -0.39526367 -3.1984558c-0.5942383 -1.3857422 -2.0802612 -3.2826538 -3.1703491 -5.115967c-1.0900879 -1.8333435 -2.5442505 -3.7311096 -3.3701172 -5.884033c-0.82592773 -2.152893 -1.2055664 -4.902008 -1.5852051 -7.0334167c-0.37963867 -2.1314392 -0.9406738 -5.350067 -0.692749 -5.755127c0.2479248 -0.4050598 1.1895752 2.2800293 2.1801758 3.324707c0.99053955 1.0446777 2.5247803 2.602295 3.7633057 2.9433594c1.2384644 0.34106445 3.1884155 -0.25738525 3.6675415 -0.89697266c0.479187 -0.6396179 -0.230896 -1.8749695 -0.79260254 -2.9406738c-0.5616455 -1.0657043 -1.7682495 -2.1958923 -2.5774536 -3.4536133c-0.80926514 -1.257721 -1.5186768 -2.5579834 -2.277954 -4.0927734c-0.7593384 -1.53479 -1.4191284 -3.9007263 -2.277954 -5.1159363c-0.8588257 -1.21521 -1.8344727 -2.2818298 -2.875 -2.175293c-1.0405273 0.10650635 -2.3445435 1.4287109 -3.368042 2.8144531c-1.0234985 1.3857422 -1.3036499 3.4320984 -2.7730713 5.4999695c-1.4693604 2.067871 -4.887329 5.073883 -6.043274 6.9072266c-1.1560059 1.833313 -1.0079346 3.3041077 -0.89245605 4.0927734c0.11541748 0.78863525 0.8092041 0.85266113 1.5852051 0.63916016c0.77593994 -0.21350098 1.8157349 -0.66244507 3.0704956 -1.920166c1.2548218 -1.2577515 3.5664062 -5.477173 4.45813 -5.6262207c0.89178467 -0.14904785 1.0079346 2.89859 0.89245605 4.7319336c-0.115478516 1.833313 -0.743042 4.2641907 -1.5852051 6.268036c-0.8421631 2.0038757 -2.1635132 3.8792725 -3.4678955 5.755127c-1.3043213 1.8758545 -3.4997559 3.901184 -4.3582153 5.5c-0.8585205 1.5987854 -1.0731201 3.325592 -0.79260254 4.092743c0.28045654 0.7671814 1.4849854 0.9793396 2.475525 0.5102539c0.9906006 -0.46905518 2.4274292 -2.621521 3.4678955 -3.3246765c1.0405273 -0.70318604 2.2630615 -1.9815063 2.7751465 -0.8942871c0.512146 1.0871887 0.82592773 5.513397 0.29748535 7.41745c-0.52838135 1.9040527 -2.1798096 2.5503845 -3.4678955 4.006836c-1.2880249 1.4564514 -3.00531 3.261139 -4.260437 4.7319336c-1.255127 1.4707642 -2.6427002 2.7070007 -3.2702637 4.092743c-0.6275635 1.3857422 -1.0072632 3.6035767 -0.4951172 4.2216797c0.51208496 0.61813354 2.2963257 -0.10787964 3.567749 -0.51293945c1.2714233 -0.4050598 3.086792 -1.1077881 4.06073 -1.9174805c0.973938 -0.8096924 1.270752 -2.578125 1.7828369 -2.9406738c0.512146 -0.36254883 1.1577148 -0.9824524 1.2897949 0.76538086c0.13214111 1.7478638 -0.41430664 6.779663 -0.49719238 9.72168c-0.08282471 2.9420166 -0.016601562 5.9905396 0 7.9303894c0.016662598 1.9398804 0.1161499 2.5436707 0.099853516 3.7087402c-0.016296387 1.1650696 -1.4031372 2.649292 -0.19763184 3.2817383z" fill-rule="evenodd"/><path fill="#000000" d="m438.0422 461.80872c1.4364624 0.5397339 4.526062 0.5678406 5.4483337 -0.11721802c0.9222717 -0.6850586 0.15118408 -0.949646 0.08529663 -3.993164c-0.06585693 -3.0434875 -0.26834106 -7.779907 -0.4805603 -14.267853c-0.21218872 -6.4879456 -1.0401306 -20.569366 -0.792572 -24.65979c0.24752808 -4.0904236 1.2211304 -0.6777344 2.2779236 0.11721802c1.0567932 0.7949829 2.246399 3.1403809 4.062866 4.6525574c1.8164673 1.512207 5.514923 4.245941 6.835907 4.4205627c1.3210144 0.17462158 1.2554626 -1.9961548 1.0900879 -3.3728027c-0.16537476 -1.376648 -0.7118225 -2.8513794 -2.0823975 -4.887024c-1.370575 -2.0356445 -4.0441284 -4.9265137 -6.141083 -7.326874c-2.0969543 -2.40036 -5.152588 -4.5390015 -6.440674 -7.0753174c-1.2880554 -2.536316 -1.1556091 -6.203827 -1.2876892 -8.142578c-0.1321106 -1.9387817 -0.19833374 -3.2380676 0.4951172 -3.4900513c0.6934204 -0.25195312 2.1628113 0.9118042 3.6654968 1.9782715c1.5026855 1.0664673 3.6991577 3.3544922 5.350586 4.420532c1.6513977 1.0660706 3.6003113 2.1504517 4.557953 1.9758301c0.9576416 -0.17462158 1.2044983 -1.9575195 1.1878662 -3.0235596c-0.01663208 -1.0660706 0.01663208 -1.6864014 -1.2877197 -3.3728027c-1.3043518 -1.6864014 -4.5898743 -4.664795 -6.5384216 -6.7456055c-1.9485779 -2.080841 -4.04657 -3.4452515 -5.152954 -5.73938c-1.1063843 -2.2941284 -1.237793 -5.466675 -1.485321 -8.02536c-0.2475586 -2.5587158 -0.66363525 -6.671112 0 -7.326874c0.66360474 -0.6557617 2.4956665 2.4618225 3.98172 3.392334c1.486023 0.9305115 3.567047 1.8256226 4.9345093 2.1907349c1.3674316 0.3651123 2.5931091 0.5621338 3.2702332 0c0.67715454 -0.5621338 1.1032715 -2.270935 0.79260254 -3.3728027c-0.31066895 -1.1018677 -1.6361694 -2.097931 -2.6565552 -3.2384644c-1.0203857 -1.140564 -2.211029 -1.8797607 -3.4658203 -3.604828c-1.2547607 -1.7250671 -3.1842651 -4.2512207 -4.0628357 -6.7456055c-0.8786011 -2.4943848 -0.90597534 -5.4613647 -1.2086792 -8.220764c-0.30267334 -2.759369 -0.115448 -6.3710938 -0.6074524 -8.33551c-0.49197388 -1.9644165 -1.5519104 -3.489624 -2.344513 -3.4509583c-0.79260254 0.03866577 -1.8934326 2.1190796 -2.4110718 3.682953c-0.5176697 1.5639038 -0.38659668 3.697235 -0.6948242 5.7003174c-0.30822754 2.0030823 -0.75827026 4.515381 -1.1545715 6.318207c-0.39630127 1.8028259 -0.26211548 2.6893616 -1.2232361 4.4986877c-0.9610901 1.8093262 -2.844818 4.560974 -4.543396 6.3573c-1.6985779 1.7962952 -4.39328 3.2767334 -5.6480713 4.420532c-1.2547607 1.1437988 -1.6000977 1.5504456 -1.8805847 2.4422913c-0.28051758 0.8918457 -0.19866943 2.1524658 0.19763184 2.9087524c0.39627075 0.75631714 1.007904 1.5903625 2.1801453 1.6290283c1.1722717 0.03866577 3.136078 -0.31140137 4.8533936 -1.3970032c1.7172852 -1.0856018 4.2119446 -3.9536438 5.450409 -5.1166077c1.2384949 -1.1629333 1.5841675 -2.2485046 1.9804688 -1.861023c0.39630127 0.3875122 0.52944946 2.5578918 0.39733887 4.186096c-0.1321106 1.6282043 -0.54574585 3.3536682 -1.1899414 5.583069c-0.64419556 2.2294006 -1.3213501 5.609131 -2.675293 7.7933655c-1.3539429 2.184204 -3.5660095 3.7480774 -5.4483337 5.311981c-1.8823547 1.5638733 -4.5246887 2.6950684 -5.8456726 4.071289c-1.3210144 1.3762207 -1.9978027 3.1586914 -2.0803223 4.1860657c-0.08251953 1.0274048 0.52838135 1.571228 1.5852051 1.9782715c1.0567932 0.40704346 2.856598 1.1621094 4.7555847 0.46401978c1.8989868 -0.6980896 4.937622 -3.2376404 6.638275 -4.6525574c1.7006836 -1.4148865 2.9877014 -4.031006 3.5656738 -3.8368225c0.5779724 0.19415283 -0.03189087 3.063446 -0.09777832 5.0018005c-0.06588745 1.9383545 0.1321106 4.832062 -0.29748535 6.6283875c-0.42959595 1.7962952 -1.2065735 2.624237 -2.2800293 4.1494446c-1.0734253 1.5252075 -2.1628418 3.024353 -4.160614 5.0018005c-1.9978027 1.9774475 -6.2905273 5.0408936 -7.8261414 6.8628235c-1.5356445 1.8219604 -1.4038696 3.0223389 -1.3875732 4.068878c0.016296387 1.0465088 0.5772705 2.112976 1.485321 2.210266c0.90808105 0.09729004 1.6677246 -0.13391113 3.9630127 -1.6265564c2.295288 -1.4926453 8.107697 -6.9027405 9.808685 -7.329315c1.7010193 -0.42660522 0.41363525 -0.2800598 0.39733887 4.7697754c-0.016296387 5.049835 -0.23092651 19.25827 -0.4951172 25.529266c-0.26419067 6.270996 -1.4367981 9.521271 -1.0900879 12.096649c0.34674072 2.575409 1.7339478 2.815979 3.1704102 3.355713z" fill-rule="evenodd"/><path stroke="#000000" stroke-width="1.0" stroke-linejoin="round" stroke-linecap="butt" d="m438.0422 461.80872c1.4364624 0.5397339 4.526062 0.5678406 5.4483337 -0.11721802c0.9222717 -0.6850586 0.15118408 -0.949646 0.08529663 -3.993164c-0.06585693 -3.0434875 -0.26834106 -7.779907 -0.4805603 -14.267853c-0.21218872 -6.4879456 -1.0401306 -20.569366 -0.792572 -24.65979c0.24752808 -4.0904236 1.2211304 -0.6777344 2.2779236 0.11721802c1.0567932 0.7949829 2.246399 3.1403809 4.062866 4.6525574c1.8164673 1.512207 5.514923 4.245941 6.835907 4.4205627c1.3210144 0.17462158 1.2554626 -1.9961548 1.0900879 -3.3728027c-0.16537476 -1.376648 -0.7118225 -2.8513794 -2.0823975 -4.887024c-1.370575 -2.0356445 -4.0441284 -4.9265137 -6.141083 -7.326874c-2.0969543 -2.40036 -5.152588 -4.5390015 -6.440674 -7.0753174c-1.2880554 -2.536316 -1.1556091 -6.203827 -1.2876892 -8.142578c-0.1321106 -1.9387817 -0.19833374 -3.2380676 0.4951172 -3.4900513c0.6934204 -0.25195312 2.1628113 0.9118042 3.6654968 1.9782715c1.5026855 1.0664673 3.6991577 3.3544922 5.350586 4.420532c1.6513977 1.0660706 3.6003113 2.1504517 4.557953 1.9758301c0.9576416 -0.17462158 1.2044983 -1.9575195 1.1878662 -3.0235596c-0.01663208 -1.0660706 0.01663208 -1.6864014 -1.2877197 -3.3728027c-1.3043518 -1.6864014 -4.5898743 -4.664795 -6.5384216 -6.7456055c-1.9485779 -2.080841 -4.04657 -3.4452515 -5.152954 -5.73938c-1.1063843 -2.2941284 -1.237793 -5.466675 -1.485321 -8.02536c-0.2475586 -2.5587158 -0.66363525 -6.671112 0 -7.326874c0.66360474 -0.6557617 2.4956665 2.4618225 3.98172 3.392334c1.486023 0.9305115 3.567047 1.8256226 4.9345093 2.1907349c1.3674316 0.3651123 2.5931091 0.5621338 3.2702332 0c0.67715454 -0.5621338 1.1032715 -2.270935 0.79260254 -3.3728027c-0.31066895 -1.1018677 -1.6361694 -2.097931 -2.6565552 -3.2384644c-1.0203857 -1.140564 -2.211029 -1.8797607 -3.4658203 -3.604828c-1.2547607 -1.7250671 -3.1842651 -4.2512207 -4.0628357 -6.7456055c-0.8786011 -2.4943848 -0.90597534 -5.4613647 -1.2086792 -8.220764c-0.30267334 -2.759369 -0.115448 -6.3710938 -0.6074524 -8.33551c-0.49197388 -1.9644165 -1.5519104 -3.489624 -2.344513 -3.4509583c-0.79260254 0.03866577 -1.8934326 2.1190796 -2.4110718 3.682953c-0.5176697 1.5639038 -0.38659668 3.697235 -0.6948242 5.7003174c-0.30822754 2.0030823 -0.75827026 4.515381 -1.1545715 6.318207c-0.39630127 1.8028259 -0.26211548 2.6893616 -1.2232361 4.4986877c-0.9610901 1.8093262 -2.844818 4.560974 -4.543396 6.3573c-1.6985779 1.7962952 -4.39328 3.2767334 -5.6480713 4.420532c-1.2547607 1.1437988 -1.6000977 1.5504456 -1.8805847 2.4422913c-0.28051758 0.8918457 -0.19866943 2.1524658 0.19763184 2.9087524c0.39627075 0.75631714 1.007904 1.5903625 2.1801453 1.6290283c1.1722717 0.03866577 3.136078 -0.31140137 4.8533936 -1.3970032c1.7172852 -1.0856018 4.2119446 -3.9536438 5.450409 -5.1166077c1.2384949 -1.1629333 1.5841675 -2.2485046 1.9804688 -1.861023c0.39630127 0.3875122 0.52944946 2.5578918 0.39733887 4.186096c-0.1321106 1.6282043 -0.54574585 3.3536682 -1.1899414 5.583069c-0.64419556 2.2294006 -1.3213501 5.609131 -2.675293 7.7933655c-1.3539429 2.184204 -3.5660095 3.7480774 -5.4483337 5.311981c-1.8823547 1.5638733 -4.5246887 2.6950684 -5.8456726 4.071289c-1.3210144 1.3762207 -1.9978027 3.1586914 -2.0803223 4.1860657c-0.08251953 1.0274048 0.52838135 1.571228 1.5852051 1.9782715c1.0567932 0.40704346 2.856598 1.1621094 4.7555847 0.46401978c1.8989868 -0.6980896 4.937622 -3.2376404 6.638275 -4.6525574c1.7006836 -1.4148865 2.9877014 -4.031006 3.5656738 -3.8368225c0.5779724 0.19415283 -0.03189087 3.063446 -0.09777832 5.0018005c-0.06588745 1.9383545 0.1321106 4.832062 -0.29748535 6.6283875c-0.42959595 1.7962952 -1.2065735 2.624237 -2.2800293 4.1494446c-1.0734253 1.5252075 -2.1628418 3.024353 -4.160614 5.0018005c-1.9978027 1.9774475 -6.2905273 5.0408936 -7.8261414 6.8628235c-1.5356445 1.8219604 -1.4038696 3.0223389 -1.3875732 4.068878c0.016296387 1.0465088 0.5772705 2.112976 1.485321 2.210266c0.90808105 0.09729004 1.6677246 -0.13391113 3.9630127 -1.6265564c2.295288 -1.4926453 8.107697 -6.9027405 9.808685 -7.329315c1.7010193 -0.42660522 0.41363525 -0.2800598 0.39733887 4.7697754c-0.016296387 5.049835 -0.23092651 19.25827 -0.4951172 25.529266c-0.26419067 6.270996 -1.4367981 9.521271 -1.0900879 12.096649c0.34674072 2.575409 1.7339478 2.815979 3.1704102 3.355713z" fill-rule="evenodd"/><path fill="#000000" d="m496.46286 467.74054c-0.21459961 -4.381073 1.2544556 -20.68335 1.4853516 -27.09964c0.23092651 -6.416321 0.015594482 -9.130096 -0.099853516 -11.398163c-0.115448 -2.268097 -0.06448364 -2.3071594 -0.5928955 -2.2102966c-0.52838135 0.09689331 -1.3886108 1.7836914 -2.5775146 2.7915344c-1.1888733 1.0078735 -3.1853027 2.6547852 -4.5558777 3.2555847c-1.370575 0.60079956 -3.105896 1.046936 -3.6676025 0.34924316c-0.561676 -0.69766235 -0.6109009 -3.0622253 0.29748535 -4.5353394c0.90841675 -1.4730835 3.4852295 -2.3645325 5.152954 -4.303314c1.6677246 -1.9387512 3.862793 -5.2321777 4.853363 -7.3292847c0.99057007 -2.0971375 0.8751221 -3.525055 1.0900879 -5.2533875c0.21496582 -1.7283325 0.66189575 -4.6513367 0.19970703 -5.116577c-0.4621582 -0.465271 -1.8001709 1.2394409 -2.9727783 2.3250427c-1.1725769 1.0856018 -3.0556335 3.5873108 -4.0628357 4.1885376c-1.0072327 0.6011963 -1.6833191 0.23324585 -1.9804688 -0.5812683c-0.29711914 -0.81451416 -0.62789917 -2.6771545 0.19763184 -4.3057556c0.825531 -1.6286011 3.4346008 -3.6825562 4.755615 -5.465851c1.3209839 -1.7832642 2.361145 -3.4309998 3.1703796 -5.2338257c0.80926514 -1.8028259 1.3549805 -3.4892273 1.6850586 -5.583069c0.33007812 -2.093872 0.80752563 -6.126892 0.29541016 -6.980072c-0.5121155 -0.85317993 -2.2453613 1.1629333 -3.368042 1.861023c-1.1226807 0.6980896 -2.2782898 1.8813782 -3.3680115 2.3275146c-1.0897522 0.44610596 -2.3115845 0.7949524 -3.1704102 0.34924316c-0.8588257 -0.44570923 -1.9163208 -1.7828674 -1.982544 -3.0235596c-0.066223145 -1.2406921 0.09881592 -2.840393 1.5852051 -4.420532c1.4863892 -1.5801697 5.8467407 -3.3833923 7.3330994 -5.060425c1.4863892 -1.6770325 1.3376465 -2.4431152 1.5852051 -5.001831c0.2475586 -2.5586853 0.34603882 -8.974182 -0.099853516 -10.350403c-0.44586182 -1.3762512 -1.6340942 1.4148865 -2.5754395 2.093048c-0.9413147 0.6781311 -2.131256 1.7625122 -3.0726013 1.9757996c-0.9413452 0.21328735 -1.9811707 0.0016174316 -2.5754395 -0.6960449c-0.5942688 -0.6976929 -1.2381287 -2.346222 -0.9902344 -3.4900513c0.24789429 -1.1437988 0.90908813 -1.8801575 2.4776611 -3.3728027c1.5685425 -1.4926453 5.6293335 -2.7203064 6.9336853 -5.583069c1.3043518 -2.8627625 0.6116028 -8.188171 0.89245605 -11.593536c0.28085327 -3.405365 0.28085327 -6.803406 0.79260254 -8.838654c0.51174927 -2.0352478 1.5019836 -3.3337402 2.277954 -3.3728027c0.77593994 -0.0390625 1.7831726 1.2968445 2.377777 3.1383362c0.594635 1.8414917 0.92575073 4.57605 1.1899414 7.9105835c0.2642212 3.3345337 -0.2156372 9.2855835 0.39526367 12.096649c0.6109314 2.8110962 2.0317688 3.0056458 3.2702637 4.769806c1.2384949 1.7641296 3.4176025 4.264221 4.1606445 5.815094c0.74298096 1.5508423 0.29748535 2.6177368 0.29748535 3.4900208c0 0.87231445 0.11541748 1.4531555 -0.29748535 1.7438049c-0.41296387 0.2906189 -1.3050537 0.3297119 -2.1801758 0c-0.8751221 -0.3297119 -2.0470276 -1.1832886 -3.0705566 -1.9782715c-1.0234985 -0.7949524 -2.4762573 -3.4961243 -3.0705566 -2.7915344c-0.5942688 0.70462036 -0.67678833 4.8414307 -0.49508667 7.019165c0.18167114 2.1777039 0.677124 4.205597 1.5851746 6.0470886c0.90808105 1.8414917 2.4762878 3.4122925 3.8631592 5.001831c1.3868713 1.589508 3.6984253 3.0426636 4.45813 4.535309c0.75964355 1.4926453 0.41363525 3.586914 0.099853516 4.4205627c-0.31378174 0.83361816 -0.23199463 1.4148865 -1.982544 0.5812683c-1.7506104 -0.8336487 -7.067871 -5.5057373 -8.520996 -5.5830994c-1.4530945 -0.07733154 -0.3297119 3.574707 -0.19760132 5.119049c0.13208008 1.544342 0.26348877 2.156952 0.99020386 4.147003c0.7267456 1.9900818 2.1149902 5.6412964 3.3701172 7.7933655c1.255127 2.1520386 3.170044 3.7814636 4.1606445 5.1190186c0.99053955 1.3375549 1.5186157 1.9566956 1.7828369 2.9063416c0.26416016 0.949646 0.16571045 2.3067322 -0.19763184 2.7915344c-0.36340332 0.48480225 -1.1074219 0.42739868 -1.982544 0.11721802c-0.8751221 -0.31015015 -2.1125793 -1.0281982 -3.2681885 -1.978241c-1.1556091 -0.9500427 -3.0213013 -4.478363 -3.6655273 -3.722046c-0.64419556 0.7562866 -0.18304443 6.6829224 -0.19970703 8.259827c-0.01663208 1.5769043 -0.015930176 0.67163086 0.099853516 1.2015991c0.11581421 0.52996826 0.09951782 0.97039795 0.5949707 1.978241c0.4954834 1.0078735 1.0072327 2.692627 2.3778076 4.068878c1.370575 1.3762207 4.557617 3.025177 5.845703 4.188507c1.2880249 1.1633606 1.6184692 2.093872 1.8826904 2.7915344c0.26416016 0.6976929 0.13208008 1.2008057 -0.29748535 1.3945618c-0.42962646 0.1937561 -1.239563 0.21368408 -2.2800293 -0.23202515c-1.0405273 -0.44570923 -2.6257324 -1.5117798 -3.9630127 -2.4422913c-1.3373108 -0.9305115 -3.3344116 -3.3927307 -4.060791 -3.1407776c-0.7263489 0.25195312 -0.29748535 1.4926453 -0.29748535 4.6525574c0 3.159912 0.08288574 8.723846 0.29748535 14.306946c0.21463013 5.583069 1.1060486 15.682739 0.9902344 19.191498c-0.11578369 3.5087585 -0.5786743 1.3375549 -1.6850586 1.861023c-1.1063538 0.523468 -3.6654968 0.9309387 -4.9532166 1.2797546c-1.2877197 0.34884644 -2.5584412 5.1943665 -2.7730713 0.81329346z" fill-rule="evenodd"/><path stroke="#000000" stroke-width="1.0" stroke-linejoin="round" stroke-linecap="butt" d="m496.46286 467.74054c-0.21459961 -4.381073 1.2544556 -20.68335 1.4853516 -27.09964c0.23092651 -6.416321 0.015594482 -9.130096 -0.099853516 -11.398163c-0.115448 -2.268097 -0.06448364 -2.3071594 -0.5928955 -2.2102966c-0.52838135 0.09689331 -1.3886108 1.7836914 -2.5775146 2.7915344c-1.1888733 1.0078735 -3.1853027 2.6547852 -4.5558777 3.2555847c-1.370575 0.60079956 -3.105896 1.046936 -3.6676025 0.34924316c-0.561676 -0.69766235 -0.6109009 -3.0622253 0.29748535 -4.5353394c0.90841675 -1.4730835 3.4852295 -2.3645325 5.152954 -4.303314c1.6677246 -1.9387512 3.862793 -5.2321777 4.853363 -7.3292847c0.99057007 -2.0971375 0.8751221 -3.525055 1.0900879 -5.2533875c0.21496582 -1.7283325 0.66189575 -4.6513367 0.19970703 -5.116577c-0.4621582 -0.465271 -1.8001709 1.2394409 -2.9727783 2.3250427c-1.1725769 1.0856018 -3.0556335 3.5873108 -4.0628357 4.1885376c-1.0072327 0.6011963 -1.6833191 0.23324585 -1.9804688 -0.5812683c-0.29711914 -0.81451416 -0.62789917 -2.6771545 0.19763184 -4.3057556c0.825531 -1.6286011 3.4346008 -3.6825562 4.755615 -5.465851c1.3209839 -1.7832642 2.361145 -3.4309998 3.1703796 -5.2338257c0.80926514 -1.8028259 1.3549805 -3.4892273 1.6850586 -5.583069c0.33007812 -2.093872 0.80752563 -6.126892 0.29541016 -6.980072c-0.5121155 -0.85317993 -2.2453613 1.1629333 -3.368042 1.861023c-1.1226807 0.6980896 -2.2782898 1.8813782 -3.3680115 2.3275146c-1.0897522 0.44610596 -2.3115845 0.7949524 -3.1704102 0.34924316c-0.8588257 -0.44570923 -1.9163208 -1.7828674 -1.982544 -3.0235596c-0.066223145 -1.2406921 0.09881592 -2.840393 1.5852051 -4.420532c1.4863892 -1.5801697 5.8467407 -3.3833923 7.3330994 -5.060425c1.4863892 -1.6770325 1.3376465 -2.4431152 1.5852051 -5.001831c0.2475586 -2.5586853 0.34603882 -8.974182 -0.099853516 -10.350403c-0.44586182 -1.3762512 -1.6340942 1.4148865 -2.5754395 2.093048c-0.9413147 0.6781311 -2.131256 1.7625122 -3.0726013 1.9757996c-0.9413452 0.21328735 -1.9811707 0.0016174316 -2.5754395 -0.6960449c-0.5942688 -0.6976929 -1.2381287 -2.346222 -0.9902344 -3.4900513c0.24789429 -1.1437988 0.90908813 -1.8801575 2.4776611 -3.3728027c1.5685425 -1.4926453 5.6293335 -2.7203064 6.9336853 -5.583069c1.3043518 -2.8627625 0.6116028 -8.188171 0.89245605 -11.593536c0.28085327 -3.405365 0.28085327 -6.803406 0.79260254 -8.838654c0.51174927 -2.0352478 1.5019836 -3.3337402 2.277954 -3.3728027c0.77593994 -0.0390625 1.7831726 1.2968445 2.377777 3.1383362c0.594635 1.8414917 0.92575073 4.57605 1.1899414 7.9105835c0.2642212 3.3345337 -0.2156372 9.2855835 0.39526367 12.096649c0.6109314 2.8110962 2.0317688 3.0056458 3.2702637 4.769806c1.2384949 1.7641296 3.4176025 4.264221 4.1606445 5.815094c0.74298096 1.5508423 0.29748535 2.6177368 0.29748535 3.4900208c0 0.87231445 0.11541748 1.4531555 -0.29748535 1.7438049c-0.41296387 0.2906189 -1.3050537 0.3297119 -2.1801758 0c-0.8751221 -0.3297119 -2.0470276 -1.1832886 -3.0705566 -1.9782715c-1.0234985 -0.7949524 -2.4762573 -3.4961243 -3.0705566 -2.7915344c-0.5942688 0.70462036 -0.67678833 4.8414307 -0.49508667 7.019165c0.18167114 2.1777039 0.677124 4.205597 1.5851746 6.0470886c0.90808105 1.8414917 2.4762878 3.4122925 3.8631592 5.001831c1.3868713 1.589508 3.6984253 3.0426636 4.45813 4.535309c0.75964355 1.4926453 0.41363525 3.586914 0.099853516 4.4205627c-0.31378174 0.83361816 -0.23199463 1.4148865 -1.982544 0.5812683c-1.7506104 -0.8336487 -7.067871 -5.5057373 -8.520996 -5.5830994c-1.4530945 -0.07733154 -0.3297119 3.574707 -0.19760132 5.119049c0.13208008 1.544342 0.26348877 2.156952 0.99020386 4.147003c0.7267456 1.9900818 2.1149902 5.6412964 3.3701172 7.7933655c1.255127 2.1520386 3.170044 3.7814636 4.1606445 5.1190186c0.99053955 1.3375549 1.5186157 1.9566956 1.7828369 2.9063416c0.26416016 0.949646 0.16571045 2.3067322 -0.19763184 2.7915344c-0.36340332 0.48480225 -1.1074219 0.42739868 -1.982544 0.11721802c-0.8751221 -0.31015015 -2.1125793 -1.0281982 -3.2681885 -1.978241c-1.1556091 -0.9500427 -3.0213013 -4.478363 -3.6655273 -3.722046c-0.64419556 0.7562866 -0.18304443 6.6829224 -0.19970703 8.259827c-0.01663208 1.5769043 -0.015930176 0.67163086 0.099853516 1.2015991c0.11581421 0.52996826 0.09951782 0.97039795 0.5949707 1.978241c0.4954834 1.0078735 1.0072327 2.692627 2.3778076 4.068878c1.370575 1.3762207 4.557617 3.025177 5.845703 4.188507c1.2880249 1.1633606 1.6184692 2.093872 1.8826904 2.7915344c0.26416016 0.6976929 0.13208008 1.2008057 -0.29748535 1.3945618c-0.42962646 0.1937561 -1.239563 0.21368408 -2.2800293 -0.23202515c-1.0405273 -0.44570923 -2.6257324 -1.5117798 -3.9630127 -2.4422913c-1.3373108 -0.9305115 -3.3344116 -3.3927307 -4.060791 -3.1407776c-0.7263489 0.25195312 -0.29748535 1.4926453 -0.29748535 4.6525574c0 3.159912 0.08288574 8.723846 0.29748535 14.306946c0.21463013 5.583069 1.1060486 15.682739 0.9902344 19.191498c-0.11578369 3.5087585 -0.5786743 1.3375549 -1.6850586 1.861023c-1.1063538 0.523468 -3.6654968 0.9309387 -4.9532166 1.2797546c-1.2877197 0.34884644 -2.5584412 5.1943665 -2.7730713 0.81329346z" fill-rule="evenodd"/><path fill="#faad7f" d="m58.240658 502.99094l0 8.62085l107.29848 0.592865l133.66856 -0.09777832l103.1857 -0.5949402l89.56381 0l115.869385 -0.099853516l104.87073 0.49508667l112.49927 0.19970703l33.784363 -0.19970703l33.636597 -0.99020386l0 -4.3582764l-2.8729248 -2.3778076l-3.6655273 -1.6850281l-7.628479 -2.3778076l-10.303833 -1.7828369l-9.808655 -1.0900879l-3.8652344 -4.557953l-4.260498 -3.8631592l-5.7458496 -4.4580994l-9.708801 -3.4678955l-10.79895 -2.8729248l-14.664124 -2.675293l-9.063904 -2.575409l-10.601318 -2.1801758l-9.808655 -2.0803223l-20.112488 -0.5949707l-22.390442 -0.4951172l-42.685974 -1.0900879l-12.284241 -1.3875732l-26.155823 -0.792572l-33.091553 -1.7662048l-7.0335693 -1.8826904l-11.791199 -2.575409l-12.186523 -2.3778076l-10.501404 -2.8729248l-18.146606 -2.675293l-10.996521 -1.4874268l-10.701172 -0.39523315l-14.662048 -0.39733887l-12.798096 -1.8806152l-13.771698 -2.2800293l-14.266785 -4.655731l-15.356873 -4.755615l-9.608978 -2.5754395l-18.66043 4.555908l-16.247253 3.9629822l-16.84433 3.3701172l-17.932312 3.2681885l-13.869446 1.2877197l-15.654388 1.2876892l-36.17874 7.5307617l-18.32965 2.2779236l-10.203949 1.7849121l-25.560822 0.9902344l-21.995178 -0.19763184l-14.497726 -0.49719238l-16.347107 0.6948242l-6.0433197 1.7828369l-10.79892 1.5852051l-13.178787 1.0900879l-17.568268 4.2438354l-20.707443 5.4483337l-15.652298 5.152954l-11.296104 6.0433044l-7.826149 5.943451l-7.8261414 0.79260254l-15.2591095 2.1801758l-14.859695 1.982544l-8.423195 0.692749l-6.636204 1.4853516z" fill-rule="evenodd"/><defs><linearGradient id="p.2" gradientUnits="userSpaceOnUse" gradientTransform="matrix(23.897020213077493 0.0 0.0 23.897020213077493 0.0 0.0)" spreadMethod="pad" x1="26.334134007753022" y1="19.570179004939884" x2="2.4371137953041284" y2="19.57000567536446"><stop offset="0.0" stop-color="#c57e54"/><stop offset="0.49" stop-color="#964e2e"/><stop offset="1.0" stop-color="#964e2e"/></linearGradient></defs><path fill="url(#p.2)" d="m58.239754 503.33594l0 8.321259l570.27466 0.39736938l0.79260254 -19.815002l-52.70685 -6.738159l-56.274597 -13.869446l-34.87442 -3.9630127l-41.21518 3.9630127l-47.95334 14.662048l-45.573456 2.7751465l-87.186005 1.9804688l-144.65054 0l-5.150856 2.377777l-8.323341 1.5852051l-11.096397 1.5852051l-11.889 1.5852051l-11.096405 1.1899414l-7.9259987 1.1878662z" fill-rule="evenodd"/><path fill="#964e2e" d="m415.19476 485.4702l-14.131592 9.134644l-19.0224 2.5421448l-23.578278 0.5679321l-51.519012 -0.28292847l-88.37593 0.56378174l-109.15205 -0.1331482l12.714882 -5.891449l18.795639 1.5040588l53.056366 -2.2176208l133.23792 0.2371521l31.506378 -1.1296082l17.237488 -1.1296082l19.222107 0z" fill-rule="evenodd"/><defs><linearGradient id="p.3" gradientUnits="userSpaceOnUse" gradientTransform="matrix(19.3316926672548 0.0 0.0 19.3316926672548 0.0 0.0)" spreadMethod="pad" x1="25.44431748363991" y1="23.01616970057363" x2="6.112624816892151" y2="23.016029687334235"><stop offset="0.0" stop-color="#995332"/><stop offset="0.77" stop-color="#c37c50"/><stop offset="1.0" stop-color="#c98d68"/></linearGradient></defs><path fill="url(#p.3)" d="m352.9788 468.7195l7.528656 -0.9902344l13.673889 -0.9923096l32.099274 -7.331024l59.247375 -14.464447l5.1508484 5.548218l6.738159 6.9357605l14.4644165 11.294037l-8.520966 2.9727783l-7.925995 2.575409l-13.869476 3.1704102l-24.570587 3.9629822l-22.78778 4.953247l-17.832458 2.7751465l-19.0224 0.39526367l-94.519104 0.39733887l-143.55838 2.575409l-21.106873 -0.28915405l2.6794434 -2.485962l11.096405 -8.718628l12.284256 -4.358246l19.353165 1.3875732l10.070816 0.66360474l11.724655 -0.26834106l16.413681 0.26834106l18.229797 -1.5851746l16.282623 -0.66363525l13.27449 -0.5949707l13.67392 -1.1899414l15.257019 -0.19763184l9.313568 0.9902344l16.842224 1.3875732l15.25705 -1.1878662l14.4644165 -3.567749l10.898773 -2.575409z" fill-rule="evenodd"/><defs><linearGradient id="p.4" gradientUnits="userSpaceOnUse" gradientTransform="matrix(17.98280183498043 0.0 0.0 17.98280183498043 0.0 0.0)" spreadMethod="pad" x1="25.98933701931957" y1="23.92504923534385" x2="8.006535184825593" y2="23.924916964024522"><stop offset="0.0" stop-color="#964e2e"/><stop offset="0.2" stop-color="#964e2e"/><stop offset="0.64" stop-color="#c57e54"/><stop offset="0.9999999" stop-color="#ba6b43"/><stop offset="0.99999994" stop-color="#a86439"/><stop offset="1.0" stop-color="#965d2e"/></linearGradient></defs><path fill="url(#p.4)" d="m143.97993 477.00278l25.758453 -6.7381287l23.778 -5.548218l22.19281 -2.7730408l26.155792 -1.982544l38.0448 0.39733887l22.985413 -1.982544l51.12372 -7.925995l36.85489 -4.3582764l71.333984 -15.85199l1.1899414 7.1333923l3.9630127 9.113861l-30.118805 6.3408203l-45.57556 12.286316l-34.47705 5.150879l-42.40512 8.323334l-32.496613 -1.1899414l-129.58907 3.1704102z" fill-rule="evenodd"/><defs><linearGradient id="p.5" gradientUnits="userSpaceOnUse" gradientTransform="matrix(18.332004172171242 0.0 0.0 18.332004172171242 0.0 0.0)" spreadMethod="pad" x1="28.447340251114372" y1="27.15187231432989" x2="46.77934442328562" y2="27.15187231432989"><stop offset="0.0" stop-color="#a15230"/><stop offset="1.0" stop-color="#fbbc8e"/></linearGradient></defs><path fill="url(#p.5)" d="m521.49677 446.0316l17.832458 1.1899414l13.474182 0l18.627136 3.1704102l13.276611 1.7828369l12.284241 3.3680115l14.4644165 2.9727783l10.701172 2.9727783l59.445007 2.17807l13.474182 2.3778076l83.22302 1.3875732l15.454651 3.1704102l13.474182 2.9727478l11.691345 2.7730713l14.069214 3.3701172l12.284241 4.5558777l7.7283936 6.9357605l4.5579224 6.538452l-185.66602 -2.9707031l-85.66736 -16.644592l-39.630005 -20.01471z" fill-rule="evenodd"/><defs><linearGradient id="p.6" gradientUnits="userSpaceOnUse" gradientTransform="matrix(20.784631395389592 0.0 0.0 20.784631395389592 0.0 0.0)" spreadMethod="pad" x1="42.99686780852238" y1="20.70095744438187" x2="22.21223641367375" y2="20.700807487529573"><stop offset="0.0" stop-color="#a15230"/><stop offset="0.7" stop-color="#faad7f"/><stop offset="1.0" stop-color="#f9ad80"/></linearGradient></defs><path fill="url(#p.6)" d="m461.67316 430.26178l0.90286255 8.348297l2.1801758 5.945526l5.5481873 6.9336853l9.113861 8.323364l12.286346 10.699036l21.202576 8.718597l26.155762 7.7283936l24.965881 4.360321l26.948425 3.9630127l18.95581 2.9706726l12.881287 2.1801758l2.7730713 2.1801758l0.9902344 2.9727783l0.55126953 6.2804565l173.61273 0.5949707l92.93182 -1.1878662l-0.087402344 -5.0946655l-2.7751465 -2.7730713l-4.1606445 -1.7828369l-7.133362 -1.1899414l-13.276611 -2.9727478l-17.239563 -1.5852051l-28.928833 -1.385498l-107.95795 -0.5949707l-16.644592 -0.5949707l-12.286377 0.19763184l-9.708801 -1.385498l-11.493713 -3.5677185l-9.311523 -1.1878662l-15.654358 -0.9923096l-8.718628 -2.1781006l-14.664124 -4.1627197l-14.85968 -6.5384216l-17.603638 -8.123627l-15.454651 -6.34079l-17.636902 -6.738159l-20.012634 -5.1508484l-20.607605 -3.368042l-25.36319 -7.1333923l-9.906464 -2.3778076l-5.1633606 -2.0075073z" fill-rule="evenodd"/><path fill="#ffffff" d="m522.6888 137.58954l4.16156 -0.89364624l0.8936157 -4.1615295l0.8936157 4.1615295l4.16156 0.89364624l-4.16156 0.893631l-0.8936157 4.1615295l-0.8936157 -4.1615295z" fill-rule="evenodd"/><path fill="#ffffff" d="m443.6701 155.36998l4.1615295 -0.893631l0.89364624 -4.1615295l0.8936157 4.1615295l4.1615295 0.893631l-4.1615295 0.89364624l-0.8936157 4.1615295l-0.89364624 -4.1615295z" fill-rule="evenodd"/><path fill="#ffffff" d="m508.1578 209.64333l4.1615295 -0.893631l0.8936157 -4.1615295l0.8936157 4.1615295l4.16156 0.893631l-4.16156 0.893631l-0.8936157 4.1615295l-0.8936157 -4.1615295z" fill-rule="evenodd"/><path fill="#ffffff" d="m349.6482 176.18146l4.1615295 -0.893631l0.89364624 -4.1615295l0.8936157 4.1615295l4.1615295 0.893631l-4.1615295 0.893631l-0.8936157 4.1615295l-0.89364624 -4.1615295z" fill-rule="evenodd"/><path fill="#ffffff" d="m604.8654 178.95451l4.161499 -0.893631l0.8936157 -4.1615295l0.89367676 4.1615295l4.161499 0.893631l-4.161499 0.89364624l-0.89367676 4.1615295l-0.8936157 -4.1615295z" fill-rule="evenodd"/><path fill="#ffffff" d="m400.86972 220.36215l4.1615295 -0.89364624l0.8936157 -4.1615295l0.89364624 4.1615295l4.1615295 0.89364624l-4.1615295 0.893631l-0.89364624 4.1615295l-0.8936157 -4.1615295z" fill-rule="evenodd"/><path fill="#ffffff" d="m270.9499 255.75871l4.1615295 -0.89364624l0.8936157 -4.1615295l0.89364624 4.1615295l4.1615295 0.89364624l-4.1615295 0.893631l-0.89364624 4.1615295l-0.8936157 -4.1615295z" fill-rule="evenodd"/><path fill="#ffffff" d="m339.53787 299.92795l4.1615295 -0.8936157l0.8936157 -4.16156l0.89364624 4.16156l4.1615295 0.8936157l-4.1615295 0.89364624l-0.89364624 4.1615295l-0.8936157 -4.1615295z" fill-rule="evenodd"/><path fill="#ffffff" d="m580.09094 236.89024l4.161499 -0.893631l0.89367676 -4.1615295l0.8936157 4.1615295l4.161499 0.893631l-4.161499 0.89364624l-0.8936157 4.1615295l-0.89367676 -4.1615295z" fill-rule="evenodd"/><path fill="#ffffff" d="m427.51437 284.56274l4.1615295 -0.89364624l0.89364624 -4.1615295l0.89364624 4.1615295l4.1615295 0.89364624l-4.1615295 0.89364624l-0.89364624 4.1615295l-0.89364624 -4.1615295z" fill-rule="evenodd"/><path fill="#ffffff" d="m518.2681 274.45242l4.161499 -0.89364624l0.89367676 -4.1615295l0.8936157 4.1615295l4.16156 0.89364624l-4.16156 0.8936157l-0.8936157 4.1615295l-0.89367676 -4.1615295z" fill-rule="evenodd"/><path fill="#ffffff" d="m660.1435 255.75871l4.16156 -0.89364624l0.8936157 -4.1615295l0.89367676 4.1615295l4.161499 0.89364624l-4.161499 0.893631l-0.89367676 4.1615295l-0.8936157 -4.1615295z" fill-rule="evenodd"/><path fill="#ffffff" d="m672.82513 268.4403l5.055176 0l0 -5.055176l0 5.055176l5.0551147 0l-5.0551147 0l0 5.055176l0 -5.055176z" fill-rule="evenodd"/><path fill="#ffffff" d="m614.9757 310.03827l4.16156 -0.8936157l0.8936157 -4.1615295l0.8936157 4.1615295l4.16156 0.8936157l-4.16156 0.89364624l-0.8936157 4.1615295l-0.8936157 -4.1615295z" fill-rule="evenodd"/><path fill="#ffffff" d="m244.33224 334.1013l4.1615295 -0.89364624l0.89364624 -4.1615295l0.893631 4.1615295l4.1615295 0.89364624l-4.1615295 0.89364624l-0.893631 4.1615295l-0.89364624 -4.1615295z" fill-rule="evenodd"/></g></svg>